<svg width="225" height="180" viewBox="0 0 225 180" fill="none" xmlns="http://www.w3.org/2000/svg">
<g clip-path="url(#clip0_3_103)">
<path d="M112.673 153.157C97.4362 153.157 82.6713 147.874 70.8935 138.208C59.1157 128.543 51.0537 115.092 48.0813 100.148C45.1089 85.2048 47.4099 69.6929 54.5922 56.2557C61.7746 42.8185 73.394 32.2874 87.4705 26.4567C101.547 20.626 117.21 19.8566 131.79 24.2795C146.37 28.7024 158.966 38.0439 167.431 50.7124C175.895 63.381 179.706 78.5927 178.212 93.7556C176.719 108.919 170.014 123.095 159.24 133.868C153.139 140.003 145.882 144.866 137.889 148.177C129.895 151.488 121.324 153.181 112.673 153.157ZM112.673 21.9498C76.6382 21.9498 47.322 51.266 47.322 87.3004C47.322 123.335 76.6382 152.651 112.673 152.651C148.707 152.651 178.023 123.335 178.023 87.3004C178.023 51.266 148.707 21.9498 112.673 21.9498Z" fill="#CCCCCC"/>
<path d="M137.126 163.033V96.6863H87.7453V163.033H137.126Z" fill="#2F2E41"/>
<path d="M145.609 94.6605H79.262V120.997H145.609V94.6605Z" fill="#3F3D56"/>
<path d="M145.609 124.036H79.262V150.372H145.609V124.036Z" fill="#3F3D56"/>
<path d="M145.609 153.411H79.262V179.747H145.609V153.411Z" fill="#3F3D56"/>
<path d="M145.609 105.827H79.262V109.879H145.609V105.827Z" fill="#21B8EC"/>
<path d="M145.609 135.202H79.262V139.254H145.609V135.202Z" fill="#21B8EC"/>
<path d="M145.609 164.577H79.262V168.629H145.609V164.577Z" fill="#21B8EC"/>
<path d="M132.694 99.9784C133.533 99.9784 134.214 99.2981 134.214 98.459C134.214 97.6198 133.533 96.9396 132.694 96.9396C131.855 96.9396 131.175 97.6198 131.175 98.459C131.175 99.2981 131.855 99.9784 132.694 99.9784Z" fill="#21B8EC"/>
<path d="M138.012 99.9784C138.851 99.9784 139.532 99.2981 139.532 98.459C139.532 97.6198 138.851 96.9396 138.012 96.9396C137.173 96.9396 136.493 97.6198 136.493 98.459C136.493 99.2981 137.173 99.9784 138.012 99.9784Z" fill="#21B8EC"/>
<path d="M143.33 99.9784C144.169 99.9784 144.849 99.2981 144.849 98.459C144.849 97.6198 144.169 96.9396 143.33 96.9396C142.491 96.9396 141.811 97.6198 141.811 98.459C141.811 99.2981 142.491 99.9784 143.33 99.9784Z" fill="#21B8EC"/>
<path d="M132.694 128.847C133.533 128.847 134.214 128.167 134.214 127.328C134.214 126.488 133.533 125.808 132.694 125.808C131.855 125.808 131.175 126.488 131.175 127.328C131.175 128.167 131.855 128.847 132.694 128.847Z" fill="#21B8EC"/>
<path d="M138.012 128.847C138.851 128.847 139.532 128.167 139.532 127.328C139.532 126.488 138.851 125.808 138.012 125.808C137.173 125.808 136.493 126.488 136.493 127.328C136.493 128.167 137.173 128.847 138.012 128.847Z" fill="#21B8EC"/>
<path d="M143.33 128.847C144.169 128.847 144.849 128.167 144.849 127.328C144.849 126.488 144.169 125.808 143.33 125.808C142.491 125.808 141.811 126.488 141.811 127.328C141.811 128.167 142.491 128.847 143.33 128.847Z" fill="#21B8EC"/>
<path d="M132.694 157.716C133.533 157.716 134.214 157.035 134.214 156.196C134.214 155.357 133.533 154.677 132.694 154.677C131.855 154.677 131.175 155.357 131.175 156.196C131.175 157.035 131.855 157.716 132.694 157.716Z" fill="#21B8EC"/>
<path d="M138.012 157.716C138.851 157.716 139.532 157.035 139.532 156.196C139.532 155.357 138.851 154.677 138.012 154.677C137.173 154.677 136.493 155.357 136.493 156.196C136.493 157.035 137.173 157.716 138.012 157.716Z" fill="#21B8EC"/>
<path d="M143.33 157.716C144.169 157.716 144.849 157.035 144.849 156.196C144.849 155.357 144.169 154.677 143.33 154.677C142.491 154.677 141.811 155.357 141.811 156.196C141.811 157.035 142.491 157.716 143.33 157.716Z" fill="#21B8EC"/>
<path d="M224.871 179.494H0V180H224.871V179.494Z" fill="#3F3D56"/>
<path d="M61.2517 68.6426V115.742C61.2515 116.727 60.86 117.672 60.1633 118.369C59.4665 119.066 58.5216 119.457 57.5362 119.457H39.2329C38.2473 119.458 37.302 119.066 36.605 118.369C35.9079 117.673 35.5162 116.728 35.5159 115.742V68.6426C35.5162 67.657 35.9079 66.7119 36.605 66.0151C37.302 65.3184 38.2473 64.927 39.2329 64.9271H41.4532C41.3442 65.1952 41.3027 65.486 41.3324 65.7739C41.3621 66.0618 41.462 66.338 41.6235 66.5782C41.7849 66.8185 42.0029 67.0154 42.2582 67.1516C42.5136 67.2879 42.7985 67.3594 43.0879 67.3597H53.5232C53.8127 67.3594 54.0976 67.2879 54.3529 67.1516C54.6083 67.0154 54.8262 66.8185 54.9877 66.5783C55.1491 66.338 55.249 66.0618 55.2787 65.7739C55.3084 65.486 55.2669 65.1952 55.1579 64.9271H57.5362C58.5216 64.9273 59.4665 65.3188 60.1633 66.0156C60.86 66.7123 61.2515 67.6573 61.2517 68.6426Z" fill="#E6E6E6"/>
<path d="M60.0325 73.9213H36.735V106.335H60.0325V73.9213Z" fill="white"/>
<path d="M52.6485 96.2102H43.3499V96.7416H52.6485V96.2102Z" fill="#E6E6E6"/>
<path d="M57.7285 98.1612H43.3405V98.6925H57.7285V98.1612Z" fill="#21B8EC"/>
<path d="M54.6318 99.9993H43.3405V100.531H54.6318V99.9993Z" fill="#E6E6E6"/>
<path d="M49.9824 101.837H43.3405V102.369H49.9824V101.837Z" fill="#E6E6E6"/>
<path d="M53.3034 103.676H43.3405V104.207H53.3034V103.676Z" fill="#E6E6E6"/>
<path d="M40.1956 96.0574H39.1329V97.1201H40.1956V96.0574Z" fill="#E6E6E6"/>
<path d="M40.1956 97.8955H39.1329V98.9582H40.1956V97.8955Z" fill="#21B8EC"/>
<path d="M40.1956 99.7336H39.1329V100.796H40.1956V99.7336Z" fill="#E6E6E6"/>
<path d="M40.1956 101.572H39.1329V102.634H40.1956V101.572Z" fill="#E6E6E6"/>
<path d="M40.1956 103.41H39.1329V104.473H40.1956V103.41Z" fill="#E6E6E6"/>
<path d="M53.1153 77.9731H43.7463V87.3421H53.1153V77.9731Z" fill="#E6E6E6"/>
<path d="M143.582 0.0352783H81.3159V39.9132H143.582V0.0352783Z" fill="#E6E6E6"/>
<path d="M137.634 11.1917H86.0098V30.6996H137.634V11.1917Z" fill="white"/>
<path d="M107.805 14.5715H95.4156V15.2795H107.805V14.5715Z" fill="#E6E6E6"/>
<path d="M114.574 17.1711H95.4032V17.8791H114.574V17.1711Z" fill="#21B8EC"/>
<path d="M110.448 19.6202H95.4032V20.3282H110.448V19.6202Z" fill="#E6E6E6"/>
<path d="M104.253 22.0695H95.4032V22.7775H104.253V22.0695Z" fill="#E6E6E6"/>
<path d="M108.678 24.5186H95.4032V25.2266H108.678V24.5186Z" fill="#E6E6E6"/>
<path d="M91.2128 14.3679H89.7968V15.7839H91.2128V14.3679Z" fill="#E6E6E6"/>
<path d="M91.2128 16.8171H89.7968V18.2331H91.2128V16.8171Z" fill="#21B8EC"/>
<path d="M91.2128 19.2662H89.7968V20.6822H91.2128V19.2662Z" fill="#E6E6E6"/>
<path d="M91.2128 21.7155H89.7968V23.1314H91.2128V21.7155Z" fill="#E6E6E6"/>
<path d="M91.2128 24.1646H89.7968V25.5806H91.2128V24.1646Z" fill="#E6E6E6"/>
<path d="M135.101 13.636H122.424V26.3125H135.101V13.636Z" fill="#E6E6E6"/>
<path d="M143.555 0H81.2893V2.64528H143.555V0Z" fill="#21B8EC"/>
<path d="M83.2551 1.8834C83.5483 1.8834 83.7861 1.64567 83.7861 1.35241C83.7861 1.05915 83.5483 0.821411 83.2551 0.821411C82.9618 0.821411 82.7241 1.05915 82.7241 1.35241C82.7241 1.64567 82.9618 1.8834 83.2551 1.8834Z" fill="white"/>
<path d="M85.1161 1.8834C85.4093 1.8834 85.6471 1.64567 85.6471 1.35241C85.6471 1.05915 85.4093 0.821411 85.1161 0.821411C84.8228 0.821411 84.5851 1.05915 84.5851 1.35241C84.5851 1.64567 84.8228 1.8834 85.1161 1.8834Z" fill="white"/>
<path d="M86.977 1.8834C87.2703 1.8834 87.508 1.64567 87.508 1.35241C87.508 1.05915 87.2703 0.821411 86.977 0.821411C86.6838 0.821411 86.446 1.05915 86.446 1.35241C86.446 1.64567 86.6838 1.8834 86.977 1.8834Z" fill="white"/>
<path d="M185.278 74.655H170.084V82.5053H185.278V74.655Z" fill="#E6E6E6"/>
<path d="M185.278 102.764H170.084V110.614H185.278V102.764Z" fill="#E6E6E6"/>
<path d="M177.681 105.296C184.673 105.296 190.342 99.6275 190.342 92.6346C190.342 85.6418 184.673 79.973 177.681 79.973C170.688 79.973 165.019 85.6418 165.019 92.6346C165.019 99.6275 170.688 105.296 177.681 105.296Z" fill="#E6E6E6"/>
<path d="M177.681 102.511C183.135 102.511 187.557 98.0891 187.557 92.6346C187.557 87.1802 183.135 82.7585 177.681 82.7585C172.226 82.7585 167.804 87.1802 167.804 92.6346C167.804 98.0891 172.226 102.511 177.681 102.511Z" fill="white"/>
<path d="M182.106 89.9286H174.446V90.3663H182.106V89.9286Z" fill="#E2E2E2"/>
<path d="M186.29 91.5357H174.439V91.9734H186.29V91.5357Z" fill="#21B8EC"/>
<path d="M183.74 93.0498H174.439V93.4875H183.74V93.0498Z" fill="#E2E2E2"/>
<path d="M179.91 94.5639H174.439V95.0016H179.91V94.5639Z" fill="#E2E2E2"/>
<path d="M182.645 96.078H174.439V96.5157H182.645V96.078Z" fill="#E2E2E2"/>
<path d="M171.848 89.8028H170.973V90.6782H171.848V89.8028Z" fill="#E2E2E2"/>
<path d="M171.848 91.3169H170.973V92.1923H171.848V91.3169Z" fill="#21B8EC"/>
<path d="M171.848 92.831H170.973V93.7064H171.848V92.831Z" fill="#E2E2E2"/>
<path d="M171.848 94.3451H170.973V95.2205H171.848V94.3451Z" fill="#E2E2E2"/>
<path d="M171.848 95.8591H170.973V96.7345H171.848V95.8591Z" fill="#E2E2E2"/>
</g>
<defs>
<clipPath id="clip0_3_103">
<rect width="224.871" height="180" fill="white"/>
</clipPath>
</defs>
</svg>
