<svg width="258" height="184" viewBox="0 0 258 184" fill="none" xmlns="http://www.w3.org/2000/svg">
<g clip-path="url(#clip0_3_38)">
<path d="M11.9243 37.4634C14.1948 37.4634 16.0353 35.625 16.0353 33.3571C16.0353 31.0893 14.1948 29.2508 11.9243 29.2508C9.65379 29.2508 7.8132 31.0893 7.8132 33.3571C7.8132 35.625 9.65379 37.4634 11.9243 37.4634Z" fill="#E6E6E6"/>
<path d="M24.2575 37.4634C26.528 37.4634 28.3686 35.625 28.3686 33.3571C28.3686 31.0893 26.528 29.2508 24.2575 29.2508C21.987 29.2508 20.1464 31.0893 20.1464 33.3571C20.1464 35.625 21.987 37.4634 24.2575 37.4634Z" fill="#E6E6E6"/>
<path d="M36.5907 37.4634C38.8612 37.4634 40.7018 35.625 40.7018 33.3571C40.7018 31.0893 38.8612 29.2508 36.5907 29.2508C34.3202 29.2508 32.4796 31.0893 32.4796 33.3571C32.4796 35.625 34.3202 37.4634 36.5907 37.4634Z" fill="#E6E6E6"/>
<path d="M48.9239 37.4634C51.1944 37.4634 53.035 35.625 53.035 33.3571C53.035 31.0893 51.1944 29.2508 48.9239 29.2508C46.6535 29.2508 44.8129 31.0893 44.8129 33.3571C44.8129 35.625 46.6535 37.4634 48.9239 37.4634Z" fill="#E6E6E6"/>
<path d="M61.2571 37.4634C63.5276 37.4634 65.3682 35.625 65.3682 33.3571C65.3682 31.0893 63.5276 29.2508 61.2571 29.2508C58.9866 29.2508 57.1461 31.0893 57.1461 33.3571C57.1461 35.625 58.9866 37.4634 61.2571 37.4634Z" fill="#E6E6E6"/>
<path d="M73.5904 37.4634C75.8609 37.4634 77.7015 35.625 77.7015 33.3571C77.7015 31.0893 75.8609 29.2508 73.5904 29.2508C71.3199 29.2508 69.4793 31.0893 69.4793 33.3571C69.4793 35.625 71.3199 37.4634 73.5904 37.4634Z" fill="#E6E6E6"/>
<path d="M85.9236 37.4634C88.1941 37.4634 90.0346 35.625 90.0346 33.3571C90.0346 31.0893 88.1941 29.2508 85.9236 29.2508C83.6531 29.2508 81.8125 31.0893 81.8125 33.3571C81.8125 35.625 83.6531 37.4634 85.9236 37.4634Z" fill="#E6E6E6"/>
<path d="M95.4234 38.3576H2.42439C1.98085 38.3571 1.55562 38.1809 1.24198 37.8676C0.92835 37.5543 0.751925 37.1296 0.751404 36.6866V30.0277C0.751924 29.5846 0.92835 29.1599 1.24198 28.8466C1.55562 28.5334 1.98085 28.3571 2.42439 28.3566H95.4234C95.867 28.3571 96.2922 28.5334 96.6059 28.8466C96.9195 29.1599 97.0959 29.5846 97.0964 30.0277V36.6866C97.0959 37.1296 96.9195 37.5543 96.6059 37.8676C96.2922 38.1809 95.867 38.3571 95.4234 38.3576ZM2.42439 29.0251C2.15826 29.0253 1.90311 29.1311 1.71492 29.319C1.52674 29.507 1.42089 29.7619 1.4206 30.0277V36.6866C1.42089 36.9524 1.52674 37.2073 1.71492 37.3952C1.90311 37.5832 2.15826 37.6889 2.42439 37.6892H95.4234C95.6896 37.6889 95.9447 37.5832 96.1329 37.3952C96.3211 37.2073 96.427 36.9524 96.4272 36.6866V30.0277C96.427 29.7619 96.3211 29.507 96.1329 29.319C95.9447 29.1311 95.6896 29.0253 95.4234 29.0251L2.42439 29.0251Z" fill="#E6E6E6"/>
<path d="M22.3268 0.960117C22.5816 0.960408 22.826 1.06166 23.0062 1.24165C23.1864 1.42164 23.2877 1.66567 23.288 1.92022V22.7258C23.2877 22.9803 23.1864 23.2244 23.0062 23.4044C22.826 23.5843 22.5816 23.6856 22.3268 23.6859H1.92251C1.66766 23.6856 1.42334 23.5843 1.24314 23.4044C1.06294 23.2244 0.961574 22.9803 0.961283 22.7258V1.92024C0.961574 1.66569 1.06294 1.42165 1.24314 1.24166C1.42334 1.06167 1.66766 0.960422 1.92251 0.960131L22.3268 0.960117ZM22.3268 1.37904e-05H1.92251C1.41264 1.37904e-05 0.923647 0.202323 0.563113 0.562438C0.20258 0.922552 3.05176e-05 1.41097 3.05176e-05 1.92025V22.7258C3.05176e-05 23.2351 0.20258 23.7235 0.563113 24.0836C0.923647 24.4437 1.41264 24.646 1.92251 24.646H22.3268C22.8367 24.646 23.3257 24.4437 23.6862 24.0836C24.0467 23.7235 24.2493 23.2351 24.2493 22.7258V1.92024C24.2493 1.41096 24.0467 0.922539 23.6862 0.562424C23.3257 0.20231 22.8367 1.45894e-05 22.3268 1.37904e-05Z" fill="#E6E6E6"/>
<path d="M19.1442 6.429H5.53056C5.4672 6.42939 5.40439 6.41726 5.34574 6.39331C5.28709 6.36936 5.23375 6.33406 5.18881 6.28945C5.14387 6.24483 5.1082 6.19178 5.08386 6.13334C5.05953 6.07491 5.047 6.01224 5.047 5.94895C5.047 5.88566 5.05953 5.82299 5.08386 5.76456C5.1082 5.70612 5.14387 5.65307 5.18881 5.60846C5.23375 5.56384 5.28709 5.52854 5.34574 5.50459C5.40439 5.48064 5.4672 5.46851 5.53056 5.4689H19.1442C19.2075 5.46851 19.2703 5.48064 19.329 5.50459C19.3876 5.52854 19.441 5.56384 19.4859 5.60846C19.5309 5.65307 19.5665 5.70612 19.5909 5.76456C19.6152 5.82299 19.6277 5.88566 19.6277 5.94895C19.6277 6.01224 19.6152 6.07491 19.5909 6.13334C19.5665 6.19178 19.5309 6.24483 19.4859 6.28945C19.441 6.33406 19.3876 6.36936 19.329 6.39331C19.2703 6.41726 19.2075 6.42939 19.1442 6.429Z" fill="#21B8EC"/>
<path d="M19.1442 9.82855H5.53056C5.4672 9.82894 5.40439 9.81681 5.34574 9.79286C5.28709 9.76891 5.23375 9.73361 5.18881 9.68899C5.14387 9.64438 5.1082 9.59132 5.08386 9.53289C5.05953 9.47445 5.047 9.41179 5.047 9.3485C5.047 9.28521 5.05953 9.22254 5.08386 9.16411C5.1082 9.10567 5.14387 9.05262 5.18881 9.00801C5.23375 8.96339 5.28709 8.92809 5.34574 8.90414C5.40439 8.88019 5.4672 8.86806 5.53056 8.86845H19.1442C19.2075 8.86806 19.2703 8.88019 19.329 8.90414C19.3876 8.92809 19.441 8.96339 19.4859 9.00801C19.5309 9.05262 19.5665 9.10567 19.5909 9.16411C19.6152 9.22254 19.6277 9.28521 19.6277 9.3485C19.6277 9.41179 19.6152 9.47445 19.5909 9.53289C19.5665 9.59132 19.5309 9.64438 19.4859 9.68899C19.441 9.73361 19.3876 9.76891 19.329 9.79286C19.2703 9.81681 19.2075 9.82894 19.1442 9.82855Z" fill="#21B8EC"/>
<path d="M19.1442 13.2279H5.53056C5.4672 13.2283 5.40439 13.2161 5.34574 13.1922C5.28709 13.1682 5.23375 13.1329 5.18881 13.0883C5.14387 13.0437 5.1082 12.9907 5.08386 12.9322C5.05953 12.8738 5.047 12.8111 5.047 12.7478C5.047 12.6845 5.05953 12.6219 5.08386 12.5634C5.1082 12.505 5.14387 12.452 5.18881 12.4073C5.23375 12.3627 5.28709 12.3274 5.34574 12.3035C5.40439 12.2795 5.4672 12.2674 5.53056 12.2678H19.1442C19.2075 12.2674 19.2703 12.2795 19.329 12.3035C19.3876 12.3274 19.441 12.3627 19.4859 12.4073C19.5309 12.452 19.5665 12.505 19.5909 12.5634C19.6152 12.6219 19.6277 12.6845 19.6277 12.7478C19.6277 12.8111 19.6152 12.8738 19.5909 12.9322C19.5665 12.9907 19.5309 13.0437 19.4859 13.0883C19.441 13.1329 19.3876 13.1682 19.329 13.1922C19.2703 13.2161 19.2075 13.2283 19.1442 13.2279Z" fill="#21B8EC"/>
<path d="M19.1442 16.6274H5.53056C5.4672 16.6278 5.40439 16.6157 5.34574 16.5917C5.28709 16.5678 5.23375 16.5325 5.18881 16.4879C5.14387 16.4433 5.1082 16.3902 5.08386 16.3318C5.05953 16.2733 5.047 16.2107 5.047 16.1474C5.047 16.0841 5.05953 16.0214 5.08386 15.963C5.1082 15.9046 5.14387 15.8515 5.18881 15.8069C5.23375 15.7623 5.28709 15.727 5.34574 15.703C5.40439 15.6791 5.4672 15.6669 5.53056 15.6673H19.1442C19.2075 15.6669 19.2703 15.6791 19.329 15.703C19.3876 15.727 19.441 15.7623 19.4859 15.8069C19.5309 15.8515 19.5665 15.9046 19.5909 15.963C19.6152 16.0214 19.6277 16.0841 19.6277 16.1474C19.6277 16.2107 19.6152 16.2733 19.5909 16.3318C19.5665 16.3902 19.5309 16.4433 19.4859 16.4879C19.441 16.5325 19.3876 16.5678 19.329 16.5917C19.2703 16.6157 19.2075 16.6278 19.1442 16.6274Z" fill="#21B8EC"/>
<path d="M19.1441 20.027H5.53054C5.40308 20.027 5.28083 19.9764 5.19069 19.8864C5.10056 19.7964 5.04993 19.6743 5.04993 19.547C5.04993 19.4196 5.10056 19.2975 5.19069 19.2075C5.28083 19.1175 5.40308 19.0669 5.53054 19.0669H19.1441C19.2716 19.0669 19.3939 19.1175 19.484 19.2075C19.5741 19.2975 19.6248 19.4196 19.6248 19.547C19.6248 19.6743 19.5741 19.7964 19.484 19.8864C19.3939 19.9764 19.2716 20.027 19.1441 20.027Z" fill="#21B8EC"/>
<path d="M92.0164 0.960117C92.2713 0.960408 92.5156 1.06166 92.6958 1.24165C92.876 1.42164 92.9773 1.66567 92.9776 1.92022V22.7258C92.9773 22.9803 92.876 23.2244 92.6958 23.4044C92.5156 23.5843 92.2713 23.6856 92.0164 23.6859H71.6121C71.3573 23.6856 71.1129 23.5843 70.9327 23.4044C70.7525 23.2244 70.6512 22.9803 70.6509 22.7258V1.92024C70.6512 1.66569 70.7525 1.42165 70.9327 1.24166C71.1129 1.06167 71.3573 0.960422 71.6121 0.960131L92.0164 0.960117ZM92.0164 1.37904e-05H71.6121C71.1022 1.37904e-05 70.6133 0.202323 70.2527 0.562438C69.8922 0.922552 69.6896 1.41097 69.6896 1.92025V22.7258C69.6896 23.2351 69.8922 23.7235 70.2527 24.0836C70.6133 24.4437 71.1022 24.646 71.6121 24.646H92.0164C92.5263 24.646 93.0153 24.4437 93.3758 24.0836C93.7363 23.7235 93.9389 23.2351 93.9389 22.7258V1.92024C93.9389 1.41096 93.7363 0.922539 93.3758 0.562424C93.0153 0.202309 92.5263 1.37904e-05 92.0164 1.37904e-05Z" fill="#E6E6E6"/>
<path d="M88.8338 6.429H75.2202C75.1568 6.42939 75.094 6.41726 75.0354 6.39331C74.9767 6.36936 74.9234 6.33406 74.8784 6.28945C74.8335 6.24483 74.7978 6.19178 74.7735 6.13334C74.7492 6.07491 74.7366 6.01224 74.7366 5.94895C74.7366 5.88566 74.7492 5.82299 74.7735 5.76456C74.7978 5.70612 74.8335 5.65307 74.8784 5.60846C74.9234 5.56384 74.9767 5.52854 75.0354 5.50459C75.094 5.48064 75.1568 5.46851 75.2202 5.4689H88.8338C88.9608 5.46967 89.0822 5.5206 89.1717 5.61054C89.2612 5.70048 89.3115 5.82214 89.3115 5.94895C89.3115 6.07576 89.2612 6.19742 89.1717 6.28736C89.0822 6.3773 88.9607 6.42822 88.8338 6.429Z" fill="#21B8EC"/>
<path d="M88.8338 9.82855H75.2202C75.1568 9.82894 75.094 9.81681 75.0354 9.79286C74.9767 9.76891 74.9234 9.73361 74.8784 9.68899C74.8335 9.64438 74.7978 9.59132 74.7735 9.53289C74.7492 9.47445 74.7366 9.41179 74.7366 9.3485C74.7366 9.28521 74.7492 9.22254 74.7735 9.16411C74.7978 9.10567 74.8335 9.05262 74.8784 9.00801C74.9234 8.96339 74.9767 8.92809 75.0354 8.90414C75.094 8.88019 75.1568 8.86806 75.2202 8.86845H88.8338C88.9608 8.86923 89.0822 8.92015 89.1717 9.01009C89.2612 9.10003 89.3115 9.22169 89.3115 9.3485C89.3115 9.47531 89.2612 9.59697 89.1717 9.68691C89.0822 9.77685 88.9607 9.82777 88.8338 9.82855Z" fill="#21B8EC"/>
<path d="M88.8338 13.2279H75.2202C75.1568 13.2283 75.094 13.2161 75.0354 13.1922C74.9767 13.1682 74.9234 13.1329 74.8784 13.0883C74.8335 13.0437 74.7978 12.9907 74.7735 12.9322C74.7492 12.8738 74.7366 12.8111 74.7366 12.7478C74.7366 12.6845 74.7492 12.6219 74.7735 12.5634C74.7978 12.505 74.8335 12.452 74.8784 12.4073C74.9234 12.3627 74.9767 12.3274 75.0354 12.3035C75.094 12.2795 75.1568 12.2674 75.2202 12.2678H88.8338C88.9608 12.2686 89.0822 12.3195 89.1717 12.4094C89.2612 12.4994 89.3115 12.621 89.3115 12.7478C89.3115 12.8746 89.2612 12.9963 89.1717 13.0862C89.0822 13.1762 88.9607 13.2271 88.8338 13.2279Z" fill="#21B8EC"/>
<path d="M88.8338 16.6274H75.2202C75.1568 16.6278 75.094 16.6157 75.0354 16.5917C74.9767 16.5678 74.9234 16.5325 74.8784 16.4879C74.8335 16.4433 74.7978 16.3902 74.7735 16.3318C74.7492 16.2733 74.7366 16.2107 74.7366 16.1474C74.7366 16.0841 74.7492 16.0214 74.7735 15.963C74.7978 15.9046 74.8335 15.8515 74.8784 15.8069C74.9234 15.7623 74.9767 15.727 75.0354 15.703C75.094 15.6791 75.1568 15.6669 75.2202 15.6673H88.8338C88.9608 15.6681 89.0822 15.719 89.1717 15.809C89.2612 15.8989 89.3115 16.0206 89.3115 16.1474C89.3115 16.2742 89.2612 16.3959 89.1717 16.4858C89.0822 16.5757 88.9607 16.6267 88.8338 16.6274Z" fill="#21B8EC"/>
<path d="M88.8338 20.027H75.2202C75.0927 20.027 74.9705 19.9764 74.8803 19.8864C74.7902 19.7964 74.7396 19.6743 74.7396 19.547C74.7396 19.4196 74.7902 19.2975 74.8803 19.2075C74.9705 19.1175 75.0927 19.0669 75.2202 19.0669H88.8338C88.9613 19.0669 89.0835 19.1175 89.1736 19.2075C89.2638 19.2975 89.3144 19.4196 89.3144 19.547C89.3144 19.6743 89.2638 19.7964 89.1736 19.8864C89.0835 19.9764 88.9612 20.027 88.8338 20.027Z" fill="#21B8EC"/>
<path d="M161.368 40.9644C161.622 40.9647 161.867 41.0659 162.047 41.2459C162.227 41.4259 162.328 41.6699 162.329 41.9245V62.73C162.328 62.9846 162.227 63.2286 162.047 63.4086C161.867 63.5886 161.622 63.6898 161.368 63.6901H140.963C140.708 63.6898 140.464 63.5886 140.284 63.4086C140.104 63.2286 140.002 62.9846 140.002 62.73V41.9245C140.002 41.67 140.104 41.4259 140.284 41.2459C140.464 41.0659 140.708 40.9647 140.963 40.9644L161.368 40.9644ZM161.368 40.0043H140.963C140.453 40.0043 139.964 40.2066 139.604 40.5667C139.243 40.9268 139.041 41.4152 139.041 41.9245V62.7301C139.041 63.2393 139.243 63.7278 139.604 64.0879C139.964 64.448 140.453 64.6503 140.963 64.6503H161.368C161.877 64.6503 162.366 64.448 162.727 64.0879C163.087 63.7278 163.29 63.2393 163.29 62.7301V41.9245C163.29 41.4152 163.087 40.9268 162.727 40.5667C162.366 40.2066 161.877 40.0043 161.368 40.0043Z" fill="#21B8EC"/>
<path d="M158.185 46.4333H144.571C144.508 46.4336 144.445 46.4215 144.387 46.3976C144.328 46.3736 144.275 46.3383 144.23 46.2937C144.185 46.2491 144.149 46.196 144.125 46.1376C144.1 46.0792 144.088 46.0165 144.088 45.9532C144.088 45.8899 144.1 45.8273 144.125 45.7688C144.149 45.7104 144.185 45.6573 144.23 45.6127C144.275 45.5681 144.328 45.5328 144.387 45.5089C144.445 45.4849 144.508 45.4728 144.571 45.4732H158.185C158.312 45.4739 158.433 45.5249 158.523 45.6148C158.612 45.7047 158.663 45.8264 158.663 45.9532C158.663 46.08 158.612 46.2017 158.523 46.2916C158.433 46.3816 158.312 46.4325 158.185 46.4333Z" fill="#21B8EC"/>
<path d="M158.185 49.8328H144.571C144.444 49.8328 144.322 49.7822 144.231 49.6922C144.141 49.6022 144.091 49.4801 144.091 49.3528C144.091 49.2254 144.141 49.1033 144.231 49.0133C144.322 48.9233 144.444 48.8727 144.571 48.8727H158.185C158.312 48.8727 158.435 48.9233 158.525 49.0133C158.615 49.1033 158.666 49.2254 158.666 49.3528C158.666 49.4801 158.615 49.6022 158.525 49.6922C158.435 49.7822 158.312 49.8328 158.185 49.8328Z" fill="#21B8EC"/>
<path d="M158.185 53.2321H144.571C144.508 53.2325 144.445 53.2203 144.387 53.1963C144.328 53.1723 144.275 53.137 144.23 53.0924C144.185 53.0478 144.149 52.9948 144.125 52.9364C144.101 52.878 144.088 52.8153 144.088 52.7521C144.088 52.6888 144.101 52.6262 144.125 52.5678C144.149 52.5094 144.185 52.4564 144.23 52.4118C144.275 52.3672 144.328 52.3319 144.387 52.3079C144.445 52.2839 144.508 52.2717 144.571 52.272H158.185C158.312 52.2728 158.433 52.3237 158.523 52.4137C158.612 52.5036 158.663 52.6253 158.663 52.7521C158.663 52.8789 158.612 53.0006 158.523 53.0905C158.433 53.1804 158.312 53.2314 158.185 53.2321Z" fill="#21B8EC"/>
<path d="M158.185 56.6317H144.571C144.508 56.6321 144.445 56.62 144.387 56.596C144.328 56.5721 144.275 56.5368 144.23 56.4921C144.185 56.4475 144.149 56.3945 144.125 56.3361C144.1 56.2776 144.088 56.2149 144.088 56.1517C144.088 56.0884 144.1 56.0257 144.125 55.9673C144.149 55.9088 144.185 55.8558 144.23 55.8112C144.275 55.7666 144.328 55.7312 144.387 55.7073C144.445 55.6833 144.508 55.6712 144.571 55.6716H158.185C158.312 55.6724 158.433 55.7233 158.523 55.8132C158.612 55.9032 158.663 56.0248 158.663 56.1517C158.663 56.2785 158.612 56.4001 158.523 56.4901C158.433 56.58 158.312 56.6309 158.185 56.6317Z" fill="#21B8EC"/>
<path d="M158.185 60.0313H144.571C144.508 60.0317 144.445 60.0195 144.387 59.9956C144.328 59.9716 144.275 59.9363 144.23 59.8917C144.185 59.8471 144.149 59.7941 144.125 59.7356C144.1 59.6772 144.088 59.6145 144.088 59.5512C144.088 59.4879 144.1 59.4253 144.125 59.3668C144.149 59.3084 144.185 59.2554 144.23 59.2107C144.275 59.1661 144.328 59.1308 144.387 59.1069C144.445 59.0829 144.508 59.0708 144.571 59.0712H158.185C158.312 59.072 158.433 59.1229 158.523 59.2128C158.612 59.3028 158.663 59.4244 158.663 59.5512C158.663 59.678 158.612 59.7997 158.523 59.8896C158.433 59.9796 158.312 60.0305 158.185 60.0313Z" fill="#21B8EC"/>
<path d="M57.4386 24.646H36.5C35.9338 24.6453 35.3909 24.4204 34.9905 24.0204C34.5901 23.6205 34.3649 23.0783 34.3642 22.5127V7.54739C34.3648 6.98177 34.5901 6.43949 34.9905 6.03951C35.3909 5.63953 35.9337 5.41453 36.5 5.41385H57.4386C58.0049 5.41447 58.5479 5.63946 58.9483 6.03944C59.3487 6.43942 59.574 6.98173 59.5746 7.54739V22.5127C59.5739 23.0783 59.3487 23.6206 58.9482 24.0205C58.5478 24.4204 58.0049 24.6454 57.4386 24.646ZM36.5 6.37397C36.1886 6.37435 35.89 6.49811 35.6698 6.7181C35.4496 6.93808 35.3258 7.23632 35.3255 7.54739V22.5127C35.3258 22.8237 35.4497 23.122 35.6699 23.3419C35.8901 23.5618 36.1886 23.6856 36.5 23.6859H57.4386C57.75 23.6856 58.0486 23.5619 58.2689 23.3419C58.4891 23.122 58.613 22.8238 58.6134 22.5127V7.54739C58.613 7.2363 58.4891 6.93805 58.2689 6.71807C58.0486 6.49809 57.75 6.37434 57.4386 6.37397H36.5Z" fill="#E6E6E6"/>
<path d="M53.7762 12.1105H40.1626C40.0357 12.1098 39.9142 12.0589 39.8247 11.9689C39.7352 11.879 39.685 11.7573 39.685 11.6305C39.685 11.5037 39.7352 11.382 39.8247 11.2921C39.9142 11.2021 40.0357 11.1512 40.1626 11.1504H53.7762C53.8396 11.1501 53.9024 11.1622 53.9611 11.1861C54.0197 11.2101 54.0731 11.2454 54.118 11.29C54.1629 11.3346 54.1986 11.3877 54.223 11.4461C54.2473 11.5045 54.2598 11.5672 54.2598 11.6305C54.2598 11.6938 54.2473 11.7565 54.223 11.8149C54.1986 11.8733 54.1629 11.9264 54.118 11.971C54.0731 12.0156 54.0197 12.0509 53.9611 12.0749C53.9024 12.0988 53.8396 12.1109 53.7762 12.1105Z" fill="#21B8EC"/>
<path d="M53.7762 15.5101H40.1626C40.0357 15.5093 39.9142 15.4584 39.8247 15.3685C39.7352 15.2785 39.685 15.1569 39.685 15.0301C39.685 14.9033 39.7352 14.7816 39.8247 14.6917C39.9142 14.6017 40.0357 14.5508 40.1626 14.55H53.7762C53.8396 14.5496 53.9024 14.5618 53.9611 14.5857C54.0197 14.6097 54.0731 14.645 54.118 14.6896C54.1629 14.7342 54.1986 14.7872 54.223 14.8457C54.2473 14.9041 54.2598 14.9668 54.2598 15.0301C54.2598 15.0934 54.2473 15.156 54.223 15.2145C54.1986 15.2729 54.1629 15.3259 54.118 15.3706C54.0731 15.4152 54.0197 15.4505 53.9611 15.4744C53.9024 15.4984 53.8396 15.5105 53.7762 15.5101Z" fill="#21B8EC"/>
<path d="M53.7762 18.9094H40.1626C40.0357 18.9087 39.9142 18.8577 39.8247 18.7678C39.7352 18.6779 39.685 18.5562 39.685 18.4294C39.685 18.3026 39.7352 18.1809 39.8247 18.091C39.9142 18.001 40.0357 17.9501 40.1626 17.9493H53.7762C53.8396 17.9489 53.9024 17.9611 53.9611 17.985C54.0197 18.009 54.0731 18.0443 54.118 18.0889C54.1629 18.1335 54.1986 18.1866 54.223 18.245C54.2473 18.3034 54.2598 18.3661 54.2598 18.4294C54.2598 18.4927 54.2473 18.5553 54.223 18.6138C54.1986 18.6722 54.1629 18.7253 54.118 18.7699C54.0731 18.8145 54.0197 18.8498 53.9611 18.8737C53.9024 18.8977 53.8396 18.9098 53.7762 18.9094Z" fill="#21B8EC"/>
<path d="M126.916 32.9387L106.806 27.1136C106.263 26.9554 105.804 26.5883 105.531 26.0928C105.258 25.5974 105.193 25.0139 105.35 24.4705L109.523 10.0974C109.681 9.55435 110.049 9.09618 110.545 8.82342C111.041 8.55066 111.625 8.48559 112.169 8.64248L132.279 14.4676C132.823 14.6258 133.282 14.9929 133.555 15.4885C133.828 15.984 133.893 16.5675 133.736 17.111L129.563 31.4841C129.404 32.0271 129.037 32.4853 128.541 32.758C128.044 33.0307 127.46 33.0957 126.916 32.9387ZM111.901 9.56461C111.602 9.47834 111.281 9.51414 111.008 9.66416C110.735 9.81418 110.533 10.0662 110.446 10.3648L106.273 24.738C106.187 25.0368 106.222 25.3577 106.373 25.6302C106.523 25.9027 106.775 26.1045 107.074 26.1915L127.184 32.0166C127.483 32.1029 127.804 32.0672 128.077 31.9172C128.35 31.7673 128.552 31.5153 128.639 31.2167L132.812 16.8436C132.899 16.5447 132.863 16.2238 132.713 15.9512C132.563 15.6787 132.31 15.4768 132.011 15.3897L111.901 9.56461Z" fill="#E6E6E6"/>
<path d="M126.894 19.8804L113.819 16.0931C113.697 16.0575 113.594 15.9748 113.533 15.8634C113.472 15.7519 113.457 15.6207 113.493 15.4986C113.528 15.3765 113.611 15.2734 113.722 15.212C113.834 15.1506 113.965 15.1358 114.087 15.171L127.162 18.9583C127.284 18.9938 127.388 19.0764 127.449 19.1879C127.511 19.2995 127.525 19.4308 127.49 19.5531C127.454 19.6754 127.372 19.7786 127.26 19.84C127.148 19.9013 127.017 19.9159 126.894 19.8804Z" fill="#21B8EC"/>
<path d="M125.946 23.1455L112.871 19.3582C112.811 19.3406 112.754 19.3113 112.705 19.2719C112.656 19.2325 112.615 19.1838 112.584 19.1286C112.554 19.0734 112.535 19.0127 112.528 18.95C112.521 18.8874 112.526 18.824 112.544 18.7634C112.561 18.7029 112.591 18.6464 112.63 18.5971C112.669 18.5479 112.718 18.5069 112.774 18.4765C112.829 18.4461 112.89 18.4269 112.952 18.42C113.015 18.413 113.079 18.4185 113.139 18.436L126.214 22.2234C126.336 22.259 126.439 22.3417 126.501 22.4531C126.562 22.5646 126.576 22.6958 126.541 22.8179C126.505 22.94 126.423 23.0431 126.311 23.1045C126.2 23.1659 126.069 23.1807 125.946 23.1455Z" fill="#21B8EC"/>
<path d="M124.998 26.4103L111.924 22.623C111.801 22.5873 111.698 22.5047 111.637 22.3933C111.576 22.2818 111.561 22.1506 111.597 22.0285C111.632 21.9064 111.715 21.8033 111.826 21.7419C111.938 21.6804 112.069 21.6657 112.191 21.7009L125.266 25.4882C125.389 25.5236 125.492 25.6062 125.553 25.7178C125.615 25.8293 125.629 25.9607 125.594 26.083C125.558 26.2052 125.476 26.3084 125.364 26.3698C125.252 26.4312 125.121 26.4458 124.998 26.4103Z" fill="#21B8EC"/>
<path d="M258 183.096H47.0826V184H258V183.096Z" fill="#E6E6E6"/>
<path d="M169.545 181.683H135.247L136.41 166.587H168.383L169.545 181.683Z" fill="#E6E6E6"/>
<path d="M171.87 179.941H133.503V183.425H171.87V179.941Z" fill="#E6E6E6"/>
<path d="M218.086 69.3275H86.9967C86.0717 69.3275 85.1845 69.6946 84.5304 70.3479C83.8763 71.0013 83.5088 71.8874 83.5088 72.8114V152.651H221.574V72.8114C221.574 72.3539 221.484 71.9009 221.308 71.4782C221.133 71.0555 220.876 70.6714 220.552 70.3479C220.228 70.0244 219.844 69.7678 219.421 69.5927C218.997 69.4176 218.544 69.3275 218.086 69.3275Z" fill="#3F3D56"/>
<path d="M83.5088 152.651V165.716C83.5088 166.173 83.599 166.626 83.7743 167.049C83.9496 167.471 84.2065 167.856 84.5304 168.179C84.8543 168.503 85.2388 168.759 85.662 168.934C86.0851 169.109 86.5387 169.199 86.9967 169.199H218.086C219.011 169.199 219.898 168.832 220.552 168.179C221.206 167.526 221.574 166.64 221.574 165.716V152.651H83.5088Z" fill="#E6E6E6"/>
<path d="M214.889 76.5856H90.4847V146.264H214.889V76.5856Z" fill="#E6E6E6"/>
<path d="M152.687 164.264C154.613 164.264 156.175 162.704 156.175 160.78C156.175 158.856 154.613 157.296 152.687 157.296C150.76 157.296 149.199 158.856 149.199 160.78C149.199 162.704 150.76 164.264 152.687 164.264Z" fill="#3F3D56"/>
<path d="M94.3637 79.5287C94.7293 79.5287 95.0256 79.2327 95.0256 78.8675C95.0256 78.5024 94.7293 78.2064 94.3637 78.2064C93.9981 78.2064 93.7018 78.5024 93.7018 78.8675C93.7018 79.2327 93.9981 79.5287 94.3637 79.5287Z" fill="white"/>
<path d="M96.8762 79.5287C97.2417 79.5287 97.5381 79.2327 97.5381 78.8675C97.5381 78.5024 97.2417 78.2064 96.8762 78.2064C96.5106 78.2064 96.2142 78.5024 96.2142 78.8675C96.2142 79.2327 96.5106 79.5287 96.8762 79.5287Z" fill="white"/>
<path d="M99.3887 79.5287C99.7542 79.5287 100.051 79.2327 100.051 78.8675C100.051 78.5024 99.7542 78.2064 99.3887 78.2064C99.0231 78.2064 98.7267 78.5024 98.7267 78.8675C98.7267 79.2327 99.0231 79.5287 99.3887 79.5287Z" fill="white"/>
<path d="M211.303 81.1141H93.7018V139.632H211.303V81.1141Z" fill="white"/>
<path d="M101.519 90.015C101.409 90.0151 101.303 90.0589 101.225 90.1368C101.147 90.2146 101.103 90.3202 101.103 90.4303V111.421C101.103 111.531 101.147 111.636 101.225 111.714C101.303 111.792 101.409 111.836 101.519 111.836H125.788C125.898 111.836 126.004 111.792 126.082 111.714C126.16 111.636 126.203 111.531 126.203 111.421V90.4303C126.203 90.3202 126.16 90.2146 126.082 90.1368C126.004 90.0589 125.898 90.0151 125.788 90.015H101.519Z" fill="#E6E6E6"/>
<path d="M140.485 90.0826C140.375 90.0827 140.269 90.1264 140.191 90.2043C140.113 90.2821 140.07 90.3877 140.07 90.4978V111.421C140.07 111.531 140.113 111.636 140.191 111.714C140.269 111.792 140.375 111.836 140.485 111.836H164.677C164.787 111.836 164.893 111.792 164.97 111.714C165.048 111.636 165.092 111.531 165.092 111.421V90.4978C165.092 90.3878 165.048 90.2822 164.97 90.2044C164.893 90.1265 164.787 90.0827 164.677 90.0826H140.485Z" fill="#E6E6E6"/>
<path d="M179.043 89.8633C178.933 89.8634 178.827 89.9072 178.749 89.985C178.671 90.0629 178.628 90.1684 178.627 90.2785V111.421C178.628 111.531 178.671 111.636 178.749 111.714C178.827 111.792 178.933 111.836 179.043 111.836H203.486C203.596 111.836 203.702 111.792 203.78 111.714C203.858 111.636 203.901 111.531 203.901 111.421V90.2785C203.901 90.1684 203.858 90.0629 203.78 89.985C203.702 89.9072 203.596 89.8634 203.486 89.8633H179.043Z" fill="#E6E6E6"/>
<path d="M101.963 122.226C101.735 122.226 101.517 122.317 101.356 122.478C101.195 122.639 101.105 122.857 101.105 123.085C101.105 123.312 101.195 123.53 101.356 123.691C101.517 123.852 101.735 123.943 101.963 123.943H124.78C125.008 123.943 125.226 123.852 125.387 123.691C125.548 123.53 125.638 123.312 125.638 123.085C125.638 122.857 125.548 122.639 125.387 122.478C125.226 122.317 125.008 122.226 124.78 122.226H101.963Z" fill="#E6E6E6"/>
<path d="M101.963 126.31C101.735 126.31 101.517 126.401 101.356 126.562C101.195 126.723 101.105 126.941 101.105 127.168C101.105 127.396 101.195 127.614 101.356 127.775C101.517 127.936 101.735 128.026 101.963 128.027H112.236C112.464 128.026 112.682 127.936 112.843 127.775C113.004 127.614 113.094 127.396 113.094 127.168C113.094 126.941 113.004 126.723 112.843 126.562C112.682 126.401 112.464 126.31 112.236 126.31H101.963Z" fill="#21B8EC"/>
<path d="M141.348 122.226C141.12 122.226 140.902 122.317 140.741 122.478C140.58 122.639 140.49 122.857 140.49 123.085C140.49 123.312 140.58 123.53 140.741 123.691C140.902 123.852 141.12 123.943 141.348 123.943H164.165C164.393 123.943 164.611 123.852 164.772 123.691C164.933 123.53 165.023 123.312 165.023 123.085C165.023 122.857 164.933 122.639 164.772 122.478C164.611 122.317 164.393 122.226 164.165 122.226H141.348Z" fill="#E6E6E6"/>
<path d="M141.348 126.31C141.12 126.31 140.902 126.401 140.741 126.562C140.58 126.723 140.49 126.941 140.49 127.168C140.49 127.396 140.58 127.614 140.741 127.775C140.902 127.936 141.12 128.026 141.348 128.027H151.621C151.849 128.026 152.067 127.936 152.228 127.775C152.389 127.614 152.479 127.396 152.479 127.168C152.479 126.941 152.389 126.723 152.228 126.562C152.067 126.401 151.849 126.31 151.621 126.31H141.348Z" fill="#21B8EC"/>
<path d="M179.748 122.226C179.521 122.226 179.303 122.317 179.142 122.478C178.981 122.639 178.891 122.857 178.891 123.085C178.891 123.312 178.981 123.53 179.142 123.691C179.303 123.852 179.521 123.943 179.748 123.943H202.566C202.793 123.943 203.012 123.852 203.173 123.691C203.333 123.53 203.424 123.312 203.424 123.085C203.424 122.857 203.333 122.639 203.173 122.478C203.012 122.317 202.793 122.226 202.566 122.226H179.748Z" fill="#E6E6E6"/>
<path d="M101.963 118.008C101.735 118.009 101.517 118.099 101.356 118.26C101.195 118.421 101.105 118.639 101.105 118.867C101.105 119.094 101.195 119.312 101.356 119.473C101.517 119.634 101.735 119.725 101.963 119.725H124.78C125.008 119.725 125.226 119.634 125.387 119.473C125.548 119.312 125.638 119.094 125.638 118.867C125.638 118.639 125.548 118.421 125.387 118.26C125.226 118.099 125.008 118.009 124.78 118.008H101.963Z" fill="#E6E6E6"/>
<path d="M141.348 118.008C141.12 118.009 140.902 118.099 140.741 118.26C140.58 118.421 140.49 118.639 140.49 118.867C140.49 119.094 140.58 119.312 140.741 119.473C140.902 119.634 141.12 119.725 141.348 119.725H164.165C164.393 119.725 164.611 119.634 164.772 119.473C164.933 119.312 165.023 119.094 165.023 118.867C165.023 118.639 164.933 118.421 164.772 118.26C164.611 118.099 164.393 118.009 164.165 118.008H141.348Z" fill="#E6E6E6"/>
<path d="M179.748 118.008C179.521 118.009 179.303 118.099 179.142 118.26C178.981 118.421 178.891 118.639 178.891 118.867C178.891 119.094 178.981 119.312 179.142 119.473C179.303 119.634 179.521 119.725 179.748 119.725H202.566C202.793 119.725 203.012 119.634 203.173 119.473C203.333 119.312 203.424 119.094 203.424 118.867C203.424 118.639 203.333 118.421 203.173 118.26C203.012 118.099 202.793 118.009 202.566 118.008H179.748Z" fill="#E6E6E6"/>
<path d="M179.749 126.31C179.521 126.31 179.303 126.401 179.142 126.562C178.981 126.723 178.891 126.941 178.891 127.168C178.891 127.396 178.981 127.614 179.142 127.775C179.303 127.936 179.521 128.026 179.749 128.027H190.022C190.249 128.026 190.468 127.936 190.629 127.775C190.789 127.614 190.88 127.396 190.88 127.168C190.88 126.941 190.789 126.723 190.629 126.562C190.468 126.401 190.249 126.31 190.022 126.31H179.749Z" fill="#21B8EC"/>
</g>
<defs>
<clipPath id="clip0_3_38">
<rect width="258" height="184" fill="white"/>
</clipPath>
</defs>
</svg>
