<svg width="231" height="180" viewBox="0 0 231 180" fill="none" xmlns="http://www.w3.org/2000/svg">
<g clip-path="url(#clip0_4_173)">
<path d="M191.903 77.6274C191.903 77.6274 186.478 80.6452 188.04 84.0811C189.601 87.517 211.778 84.7058 211.778 84.7058C211.778 84.7058 210.217 80.0205 207.405 79.0834C204.594 78.1464 191.903 77.6274 191.903 77.6274Z" fill="#21B8EC"/>
<path d="M189.788 78.4321C190.879 77.7232 192.091 77.222 193.364 76.9536C197.609 75.9248 202.053 76.0634 206.226 77.3548L206.149 77.2926C207.927 78.2309 209.487 79.5322 210.73 81.1122L189.788 78.4321Z" fill="#CCCCCC"/>
<path d="M213.815 93.208C213.74 94.3294 213.665 95.4497 213.59 96.5689C213.487 98.9132 213.232 101.248 212.825 103.559C212.444 105.493 211.838 107.411 210.754 109.057C209.67 110.7 208.061 112.059 206.156 112.558C204.986 112.839 203.77 112.865 202.589 112.636C200.362 111.371 198.853 112.989 201.077 114.635C201.582 115.008 202.106 115.354 202.648 115.669L203.657 131.246L184.916 127.186L188.574 106.464C188.013 105.955 187.501 105.396 187.043 104.793C184.947 102.01 184.226 98.3837 184.363 94.9041C184.504 91.4213 185.431 88.0261 186.353 84.6683C186.588 83.7573 186.871 82.8595 187.202 81.9789C187.612 82.1476 188.027 82.3006 188.449 82.4287C191.144 83.247 194.009 83.3126 196.826 83.3095C201.839 83.3064 206.846 83.1106 211.847 82.7223C212.996 84.6142 213.694 86.7454 213.887 88.9506C213.968 90.3696 213.944 91.7926 213.815 93.208Z" fill="#CCCCCC"/>
<path d="M133.659 135.493L162.511 138.054L162.821 138.082V14.9711C162.717 14.8993 162.614 14.8274 162.511 14.7556C156.498 10.5497 149.994 7.09441 143.142 4.46667L141.668 24.8009L141.534 26.6625L140.075 46.8281L139.625 53.0314L133.712 134.774L133.659 135.493Z" fill="#E6E6E6"/>
<path d="M62.3083 12.6784C62.1021 12.8096 61.896 12.9408 61.6898 13.0782V138.082L62.3083 138.026L90.848 135.493L90.7949 134.774L84.8821 53.0313L84.4323 46.828L82.9736 26.6625L82.8393 24.8008L81.2931 3.47644C74.6255 5.78766 68.2533 8.87625 62.3083 12.6784Z" fill="#E6E6E6"/>
<path d="M61.6898 13.0783C61.2744 13.3469 60.859 13.6218 60.4498 13.8998V139.788C60.4498 142.933 62.3145 145.569 64.8071 146.241C65.2144 146.351 65.6346 146.407 66.0565 146.406H158.763C159.184 146.407 159.603 146.351 160.009 146.241C160.936 145.984 161.776 145.481 162.439 144.785C163.706 143.432 164.397 141.641 164.37 139.788V16.0894C163.858 15.7114 163.342 15.3366 162.821 14.9711C162.717 14.8993 162.614 14.8275 162.511 14.7556V139.788C162.512 140.193 162.464 140.597 162.368 140.99C161.927 142.849 160.475 144.211 158.763 144.211H66.0565C63.9887 144.211 62.3083 142.227 62.3083 139.788V12.6785C62.1021 12.8097 61.896 12.9408 61.6898 13.0783Z" fill="#E6E6E6"/>
<path d="M163.441 24.8021H61.3783V26.6634H163.441V24.8021Z" fill="#E6E6E6"/>
<path d="M132.182 1.05886C131.563 0.905804 130.945 0.76212 130.32 0.627808V51.1697H132.182V1.05886Z" fill="#E6E6E6"/>
<path d="M94.4995 0C93.8779 0.115571 93.2563 0.234262 92.6378 0.362327V51.1698H94.4995V0Z" fill="#E6E6E6"/>
<path d="M41.3681 143.149C41.3677 144.217 41.5723 145.275 41.9709 146.266C42.124 146.65 42.3068 147.022 42.5176 147.378C42.7898 147.842 43.1056 148.279 43.4609 148.683C44.2456 149.578 45.2121 150.294 46.2959 150.785C47.3797 151.275 48.5557 151.529 49.7454 151.529H171.973C174.194 151.529 176.325 150.646 177.896 149.075C179.467 147.504 180.35 145.373 180.35 143.152C180.35 140.93 179.467 138.799 177.896 137.228C176.325 135.657 174.194 134.774 171.973 134.774H49.7454C47.5248 134.776 45.3958 135.659 43.8253 137.229C42.2548 138.799 41.3711 140.928 41.3681 143.149Z" fill="#E6E6E6"/>
<path d="M61.3783 53.0321L162.82 53.0321V46.8277L61.3783 46.8277V53.0321Z" fill="#E6E6E6"/>
<path d="M116.442 48.3788H107.756C107.756 47.9307 107.844 47.4869 108.016 47.0729C108.187 46.6589 108.439 46.2827 108.756 45.9659C109.072 45.649 109.449 45.3976 109.863 45.2261C110.277 45.0546 110.72 44.9664 111.169 44.9664H113.03C113.935 44.9664 114.803 45.3259 115.443 45.9659C116.083 46.6058 116.442 47.4738 116.442 48.3788Z" fill="#E6E6E6"/>
<path d="M0 147.934C2.7135 151.149 5.64844 154.171 8.78338 156.976H221.99C225.125 154.171 228.06 151.149 230.773 147.934H0Z" fill="#3F3D56"/>
<path d="M57.8354 117.695V149.73H80.278V117.695C80.2784 117.464 80.2049 117.24 80.0682 117.054C79.9316 116.869 79.7391 116.732 79.519 116.664C79.4152 116.63 79.3065 116.613 79.1973 116.614H58.9193C58.7771 116.614 58.6363 116.642 58.5049 116.696C58.3734 116.75 58.254 116.829 58.1533 116.93C58.0527 117.03 57.9728 117.149 57.9182 117.281C57.8637 117.412 57.8355 117.553 57.8354 117.695ZM66.5938 128.702C66.5996 128.071 66.8546 127.467 67.3033 127.022C67.7519 126.578 68.358 126.329 68.9895 126.329C69.6211 126.329 70.2271 126.578 70.6758 127.022C71.1244 127.467 71.3794 128.071 71.3853 128.702V132.419C71.3821 133.052 71.1282 133.659 70.6793 134.105C70.2303 134.552 69.6228 134.803 68.9895 134.803C68.3562 134.803 67.7487 134.552 67.2998 134.105C66.8509 133.659 66.597 133.052 66.5938 132.419V128.702Z" fill="#2F2E41"/>
<path d="M57.7667 148.705V151.795C57.7672 151.955 57.8307 152.108 57.9436 152.221C58.0565 152.335 58.2095 152.399 58.3695 152.4H79.7439C79.904 152.4 80.0574 152.335 80.1703 152.222C80.2833 152.108 80.3467 151.955 80.3467 151.795V148.705H57.7667Z" fill="#3F3D56"/>
<path d="M22.5301 69.43V127.921C22.5307 128.667 22.827 129.381 23.3541 129.908C23.8812 130.436 24.5959 130.732 25.3412 130.733H112.019C112.765 130.732 113.479 130.436 114.007 129.909C114.534 129.381 114.83 128.667 114.831 127.921V69.43C114.829 68.6853 114.532 67.9716 114.005 67.4453C113.478 66.919 112.764 66.6229 112.019 66.6219H25.3412C24.5965 66.6229 23.8825 66.919 23.3556 67.4453C22.8287 67.9716 22.5318 68.6853 22.5301 69.43Z" fill="#3F3D56"/>
<path d="M24.5635 70.1578V127.2C24.5642 127.598 24.7227 127.98 25.0043 128.261C25.2859 128.543 25.6676 128.702 26.0659 128.702H111.298C111.696 128.702 112.078 128.543 112.359 128.261C112.641 127.98 112.8 127.598 112.8 127.2V70.1578C112.8 69.759 112.642 69.3766 112.36 69.0943C112.079 68.8121 111.697 68.6531 111.298 68.6522H26.0659C25.6672 68.6531 25.285 68.8121 25.0034 69.0943C24.7217 69.3766 24.5635 69.759 24.5635 70.1578Z" fill="#21B8EC"/>
<path d="M41.9428 153.128C42.0296 153.237 42.1399 153.325 42.2654 153.385C42.3909 153.445 42.5284 153.476 42.6675 153.475H93.375C93.5137 153.475 93.6505 153.444 93.7757 153.384C93.9009 153.324 94.0111 153.237 94.0985 153.13C94.1858 153.022 94.2481 152.896 94.2807 152.761C94.3133 152.627 94.3155 152.486 94.287 152.35L93.4999 148.612C93.4673 148.459 93.397 148.317 93.2956 148.199C93.1941 148.08 93.0646 147.989 92.9189 147.934C92.8135 147.892 92.7011 147.871 92.5878 147.871H43.4515C43.3382 147.871 43.2259 147.892 43.1204 147.934C42.9747 147.989 42.8452 148.08 42.7438 148.199C42.6423 148.317 42.572 148.459 42.5394 148.612L41.7523 152.35C41.7243 152.486 41.7268 152.626 41.7598 152.761C41.7928 152.895 41.8553 153.021 41.9428 153.128Z" fill="#2F2E41"/>
<path d="M90.8184 149.482H92.0752C92.1594 149.482 92.2277 149.413 92.2277 149.329V148.697C92.2277 148.613 92.1594 148.545 92.0752 148.545H90.8184C90.7342 148.545 90.6659 148.613 90.6659 148.697V149.329C90.6659 149.413 90.7342 149.482 90.8184 149.482Z" fill="#3F3D56"/>
<path d="M87.6948 149.482H88.9516C89.0359 149.482 89.1041 149.413 89.1041 149.329V148.697C89.1041 148.613 89.0359 148.545 88.9516 148.545H87.6948C87.6106 148.545 87.5424 148.613 87.5424 148.697V149.329C87.5424 149.413 87.6106 149.482 87.6948 149.482Z" fill="#3F3D56"/>
<path d="M84.5713 149.482H85.8281C85.9123 149.482 85.9806 149.413 85.9806 149.329V148.697C85.9806 148.613 85.9123 148.545 85.8281 148.545H84.5713C84.4871 148.545 84.4188 148.613 84.4188 148.697V149.329C84.4188 149.413 84.4871 149.482 84.5713 149.482Z" fill="#3F3D56"/>
<path d="M81.4478 149.482H82.7046C82.7888 149.482 82.8571 149.413 82.8571 149.329V148.697C82.8571 148.613 82.7888 148.545 82.7046 148.545H81.4478C81.3636 148.545 81.2953 148.613 81.2953 148.697V149.329C81.2953 149.413 81.3636 149.482 81.4478 149.482Z" fill="#3F3D56"/>
<path d="M78.3242 149.482H79.581C79.6652 149.482 79.7335 149.413 79.7335 149.329V148.697C79.7335 148.613 79.6652 148.545 79.581 148.545H78.3242C78.24 148.545 78.1718 148.613 78.1718 148.697V149.329C78.1718 149.413 78.24 149.482 78.3242 149.482Z" fill="#3F3D56"/>
<path d="M75.2007 149.482H76.4575C76.5417 149.482 76.61 149.413 76.61 149.329V148.697C76.61 148.613 76.5417 148.545 76.4575 148.545H75.2007C75.1165 148.545 75.0482 148.613 75.0482 148.697V149.329C75.0482 149.413 75.1165 149.482 75.2007 149.482Z" fill="#3F3D56"/>
<path d="M72.0772 149.482H73.334C73.4182 149.482 73.4865 149.413 73.4865 149.329V148.697C73.4865 148.613 73.4182 148.545 73.334 148.545H72.0772C71.993 148.545 71.9247 148.613 71.9247 148.697V149.329C71.9247 149.413 71.993 149.482 72.0772 149.482Z" fill="#3F3D56"/>
<path d="M68.9536 149.482H70.2104C70.2946 149.482 70.3629 149.413 70.3629 149.329V148.697C70.3629 148.613 70.2946 148.545 70.2104 148.545H68.9536C68.8694 148.545 68.8011 148.613 68.8011 148.697V149.329C68.8011 149.413 68.8694 149.482 68.9536 149.482Z" fill="#3F3D56"/>
<path d="M65.8301 149.482H67.0869C67.1711 149.482 67.2394 149.413 67.2394 149.329V148.697C67.2394 148.613 67.1711 148.545 67.0869 148.545H65.8301C65.7459 148.545 65.6776 148.613 65.6776 148.697V149.329C65.6776 149.413 65.7459 149.482 65.8301 149.482Z" fill="#3F3D56"/>
<path d="M62.7066 149.482H63.9634C64.0476 149.482 64.1158 149.413 64.1158 149.329V148.697C64.1158 148.613 64.0476 148.545 63.9634 148.545H62.7066C62.6223 148.545 62.5541 148.613 62.5541 148.697V149.329C62.5541 149.413 62.6223 149.482 62.7066 149.482Z" fill="#3F3D56"/>
<path d="M59.583 149.482H60.8398C60.924 149.482 60.9923 149.413 60.9923 149.329V148.697C60.9923 148.613 60.924 148.545 60.8398 148.545H59.583C59.4988 148.545 59.4305 148.613 59.4305 148.697V149.329C59.4305 149.413 59.4988 149.482 59.583 149.482Z" fill="#3F3D56"/>
<path d="M56.4595 149.482H57.7163C57.8005 149.482 57.8688 149.413 57.8688 149.329V148.697C57.8688 148.613 57.8005 148.545 57.7163 148.545H56.4595C56.3753 148.545 56.307 148.613 56.307 148.697V149.329C56.307 149.413 56.3753 149.482 56.4595 149.482Z" fill="#3F3D56"/>
<path d="M53.336 149.482H54.5928C54.677 149.482 54.7452 149.413 54.7452 149.329V148.697C54.7452 148.613 54.677 148.545 54.5928 148.545H53.336C53.2517 148.545 53.1835 148.613 53.1835 148.697V149.329C53.1835 149.413 53.2517 149.482 53.336 149.482Z" fill="#3F3D56"/>
<path d="M50.2124 149.482H51.4692C51.5534 149.482 51.6217 149.413 51.6217 149.329V148.697C51.6217 148.613 51.5534 148.545 51.4692 148.545H50.2124C50.1282 148.545 50.0599 148.613 50.0599 148.697V149.329C50.0599 149.413 50.1282 149.482 50.2124 149.482Z" fill="#3F3D56"/>
<path d="M47.0889 149.482H48.3457C48.4299 149.482 48.4982 149.413 48.4982 149.329V148.697C48.4982 148.613 48.4299 148.545 48.3457 148.545H47.0889C47.0047 148.545 46.9364 148.613 46.9364 148.697V149.329C46.9364 149.413 47.0047 149.482 47.0889 149.482Z" fill="#3F3D56"/>
<path d="M43.9654 149.482H45.2221C45.3064 149.482 45.3746 149.413 45.3746 149.329V148.697C45.3746 148.613 45.3064 148.545 45.2221 148.545H43.9654C43.8811 148.545 43.8129 148.613 43.8129 148.697V149.329C43.8129 149.413 43.8811 149.482 43.9654 149.482Z" fill="#3F3D56"/>
<path d="M90.8553 151.043H92.1121C92.1963 151.043 92.2646 150.975 92.2646 150.891V150.259C92.2646 150.175 92.1963 150.106 92.1121 150.106H90.8553C90.7711 150.106 90.7028 150.175 90.7028 150.259V150.891C90.7028 150.975 90.7711 151.043 90.8553 151.043Z" fill="#3F3D56"/>
<path d="M87.7318 151.043H88.9886C89.0728 151.043 89.1411 150.975 89.1411 150.891V150.259C89.1411 150.175 89.0728 150.106 88.9886 150.106H87.7318C87.6475 150.106 87.5793 150.175 87.5793 150.259V150.891C87.5793 150.975 87.6475 151.043 87.7318 151.043Z" fill="#3F3D56"/>
<path d="M84.6082 151.043H85.865C85.9492 151.043 86.0175 150.975 86.0175 150.891V150.259C86.0175 150.175 85.9492 150.106 85.865 150.106H84.6082C84.524 150.106 84.4557 150.175 84.4557 150.259V150.891C84.4557 150.975 84.524 151.043 84.6082 151.043Z" fill="#3F3D56"/>
<path d="M81.4847 151.043H82.7415C82.8257 151.043 82.894 150.975 82.894 150.891V150.259C82.894 150.175 82.8257 150.106 82.7415 150.106H81.4847C81.4005 150.106 81.3322 150.175 81.3322 150.259V150.891C81.3322 150.975 81.4005 151.043 81.4847 151.043Z" fill="#3F3D56"/>
<path d="M78.3612 151.043H79.618C79.7022 151.043 79.7704 150.975 79.7704 150.891V150.259C79.7704 150.175 79.7022 150.106 79.618 150.106H78.3612C78.2769 150.106 78.2087 150.175 78.2087 150.259V150.891C78.2087 150.975 78.2769 151.043 78.3612 151.043Z" fill="#3F3D56"/>
<path d="M75.2376 151.043H76.4944C76.5786 151.043 76.6469 150.975 76.6469 150.891V150.259C76.6469 150.175 76.5786 150.106 76.4944 150.106H75.2376C75.1534 150.106 75.0851 150.175 75.0851 150.259V150.891C75.0851 150.975 75.1534 151.043 75.2376 151.043Z" fill="#3F3D56"/>
<path d="M72.1141 151.043H73.3709C73.4551 151.043 73.5234 150.975 73.5234 150.891V150.259C73.5234 150.175 73.4551 150.106 73.3709 150.106H72.1141C72.0299 150.106 71.9616 150.175 71.9616 150.259V150.891C71.9616 150.975 72.0299 151.043 72.1141 151.043Z" fill="#3F3D56"/>
<path d="M68.9906 151.043H70.2474C70.3316 151.043 70.3998 150.975 70.3998 150.891V150.259C70.3998 150.175 70.3316 150.106 70.2474 150.106H68.9906C68.9063 150.106 68.8381 150.175 68.8381 150.259V150.891C68.8381 150.975 68.9063 151.043 68.9906 151.043Z" fill="#3F3D56"/>
<path d="M65.867 151.043H67.1238C67.208 151.043 67.2763 150.975 67.2763 150.891V150.259C67.2763 150.175 67.208 150.106 67.1238 150.106H65.867C65.7828 150.106 65.7145 150.175 65.7145 150.259V150.891C65.7145 150.975 65.7828 151.043 65.867 151.043Z" fill="#3F3D56"/>
<path d="M62.7435 151.043H64.0003C64.0845 151.043 64.1528 150.975 64.1528 150.891V150.259C64.1528 150.175 64.0845 150.106 64.0003 150.106H62.7435C62.6593 150.106 62.591 150.175 62.591 150.259V150.891C62.591 150.975 62.6593 151.043 62.7435 151.043Z" fill="#3F3D56"/>
<path d="M59.62 151.043H60.8767C60.961 151.043 61.0292 150.975 61.0292 150.891V150.259C61.0292 150.175 60.961 150.106 60.8767 150.106H59.62C59.5357 150.106 59.4675 150.175 59.4675 150.259V150.891C59.4675 150.975 59.5357 151.043 59.62 151.043Z" fill="#3F3D56"/>
<path d="M56.4964 151.043H57.7532C57.8374 151.043 57.9057 150.975 57.9057 150.891V150.259C57.9057 150.175 57.8374 150.106 57.7532 150.106H56.4964C56.4122 150.106 56.3439 150.175 56.3439 150.259V150.891C56.3439 150.975 56.4122 151.043 56.4964 151.043Z" fill="#3F3D56"/>
<path d="M53.3729 151.043H54.6297C54.7139 151.043 54.7822 150.975 54.7822 150.891V150.259C54.7822 150.175 54.7139 150.106 54.6297 150.106H53.3729C53.2887 150.106 53.2204 150.175 53.2204 150.259V150.891C53.2204 150.975 53.2887 151.043 53.3729 151.043Z" fill="#3F3D56"/>
<path d="M50.2494 151.043H51.5061C51.5904 151.043 51.6586 150.975 51.6586 150.891V150.259C51.6586 150.175 51.5904 150.106 51.5061 150.106H50.2494C50.1651 150.106 50.0969 150.175 50.0969 150.259V150.891C50.0969 150.975 50.1651 151.043 50.2494 151.043Z" fill="#3F3D56"/>
<path d="M47.1258 151.043H48.3826C48.4668 151.043 48.5351 150.975 48.5351 150.891V150.259C48.5351 150.175 48.4668 150.106 48.3826 150.106H47.1258C47.0416 150.106 46.9733 150.175 46.9733 150.259V150.891C46.9733 150.975 47.0416 151.043 47.1258 151.043Z" fill="#3F3D56"/>
<path d="M44.0023 151.043H45.2591C45.3433 151.043 45.4116 150.975 45.4116 150.891V150.259C45.4116 150.175 45.3433 150.106 45.2591 150.106H44.0023C43.9181 150.106 43.8498 150.175 43.8498 150.259V150.891C43.8498 150.975 43.9181 151.043 44.0023 151.043Z" fill="#3F3D56"/>
<path d="M64.93 152.918H77.1191C77.2033 152.918 77.2716 152.849 77.2716 152.765V152.133C77.2716 152.049 77.2033 151.981 77.1191 151.981H64.93C64.8457 151.981 64.7775 152.049 64.7775 152.133V152.765C64.7775 152.849 64.8457 152.918 64.93 152.918Z" fill="#3F3D56"/>
<path d="M30.3489 76.51H110.1C110.183 76.5082 110.262 76.474 110.32 76.4147C110.378 76.3554 110.41 76.2758 110.41 76.1929C110.41 76.11 110.378 76.0303 110.32 75.971C110.262 75.9118 110.183 75.8776 110.1 75.8757H30.3489C30.266 75.8776 30.1871 75.9118 30.1291 75.971C30.0711 76.0303 30.0386 76.11 30.0386 76.1929C30.0386 76.2758 30.0711 76.3554 30.1291 76.4147C30.1871 76.474 30.266 76.5082 30.3489 76.51Z" fill="#3F3D56"/>
<path d="M104.671 74.2564C105.698 74.2564 106.53 73.4057 106.53 72.3564C106.53 71.307 105.698 70.4563 104.671 70.4563C103.645 70.4563 102.813 71.307 102.813 72.3564C102.813 73.4057 103.645 74.2564 104.671 74.2564Z" fill="#3F3D56"/>
<path d="M98.2505 74.2564C99.277 74.2564 100.109 73.4057 100.109 72.3564C100.109 71.307 99.277 70.4563 98.2505 70.4563C97.224 70.4563 96.3918 71.307 96.3918 72.3564C96.3918 73.4057 97.224 74.2564 98.2505 74.2564Z" fill="#3F3D56"/>
<path d="M91.8298 74.2564C92.8563 74.2564 93.6884 73.4057 93.6884 72.3564C93.6884 71.307 92.8563 70.4563 91.8298 70.4563C90.8033 70.4563 89.9711 71.307 89.9711 72.3564C89.9711 73.4057 90.8033 74.2564 91.8298 74.2564Z" fill="#3F3D56"/>
<path d="M33.8747 71.2729C33.8745 71.3178 33.8831 71.3623 33.9001 71.4039C33.9171 71.4455 33.9422 71.4833 33.9738 71.5152C34.0054 71.5471 34.043 71.5725 34.0844 71.5898C34.1258 71.6072 34.1703 71.6162 34.2152 71.6164H38.7756C38.8657 71.6143 38.9515 71.5771 39.0145 71.5126C39.0775 71.4481 39.1128 71.3615 39.1128 71.2713C39.1128 71.1811 39.0775 71.0945 39.0145 71.03C38.9515 70.9655 38.8657 70.9282 38.7756 70.9261H34.2152C34.1242 70.9273 34.0373 70.9643 33.9735 71.0293C33.9097 71.0943 33.8742 71.1818 33.8747 71.2729Z" fill="#3F3D56"/>
<path d="M33.8747 72.5691C33.8745 72.614 33.8831 72.6586 33.9001 72.7002C33.9171 72.7417 33.9422 72.7796 33.9738 72.8115C34.0054 72.8434 34.043 72.8687 34.0844 72.8861C34.1258 72.9035 34.1703 72.9125 34.2152 72.9127H38.7756C38.8658 72.9107 38.9516 72.8735 39.0147 72.809C39.0778 72.7445 39.1132 72.6578 39.1132 72.5676C39.1132 72.4773 39.0778 72.3907 39.0147 72.3262C38.9516 72.2617 38.8658 72.2244 38.7756 72.2224H34.2152C34.1242 72.2235 34.0373 72.2606 33.9735 72.3256C33.9097 72.3905 33.8742 72.4781 33.8747 72.5691Z" fill="#3F3D56"/>
<path d="M33.8747 73.8623C33.8742 73.9533 33.9097 74.0409 33.9735 74.1058C34.0373 74.1708 34.1242 74.2079 34.2152 74.209H38.7756C38.8657 74.2069 38.9515 74.1696 39.0145 74.1051C39.0775 74.0406 39.1128 73.954 39.1128 73.8638C39.1128 73.7737 39.0775 73.6871 39.0145 73.6226C38.9515 73.5581 38.8657 73.5208 38.7756 73.5187H34.2152C34.1703 73.5189 34.1258 73.5279 34.0844 73.5453C34.043 73.5627 34.0054 73.588 33.9738 73.6199C33.9422 73.6518 33.9171 73.6897 33.9001 73.7312C33.8831 73.7728 33.8745 73.8173 33.8747 73.8623Z" fill="#3F3D56"/>
<path d="M35.2841 83.8805H33.6454C33.1486 83.8805 32.7459 84.2832 32.7459 84.7801C32.7459 85.2769 33.1486 85.6796 33.6454 85.6796H35.2841C35.7809 85.6796 36.1837 85.2769 36.1837 84.7801C36.1837 84.2832 35.7809 83.8805 35.2841 83.8805Z" fill="#E6E6E6"/>
<path d="M54.0254 83.8805H52.3867C51.8899 83.8805 51.4871 84.2832 51.4871 84.7801C51.4871 85.2769 51.8899 85.6796 52.3867 85.6796H54.0254C54.5222 85.6796 54.9249 85.2769 54.9249 84.7801C54.9249 84.2832 54.5222 83.8805 54.0254 83.8805Z" fill="#E6E6E6"/>
<path d="M59.3353 83.8805H57.6967C57.1999 83.8805 56.7971 84.2832 56.7971 84.7801C56.7971 85.2769 57.1999 85.6796 57.6967 85.6796H59.3353C59.8322 85.6796 60.2349 85.2769 60.2349 84.7801C60.2349 84.2832 59.8322 83.8805 59.3353 83.8805Z" fill="#E6E6E6"/>
<path d="M48.9277 83.7305H38.7431C38.2463 83.7305 37.8436 84.1332 37.8436 84.63C37.8436 85.1269 38.2463 85.5296 38.7431 85.5296H48.9277C49.4245 85.5296 49.8272 85.1269 49.8272 84.63C49.8272 84.1332 49.4245 83.7305 48.9277 83.7305Z" fill="#E6E6E6"/>
<path d="M73.9159 83.7305H63.7314C63.2346 83.7305 62.8318 84.1332 62.8318 84.63C62.8318 85.1269 63.2346 85.5296 63.7314 85.5296H73.9159C74.4128 85.5296 74.8155 85.1269 74.8155 84.63C74.8155 84.1332 74.4128 83.7305 73.9159 83.7305Z" fill="#E6E6E6"/>
<path d="M40.2818 87.941H38.6431C38.1463 87.941 37.7435 88.3438 37.7435 88.8406C37.7435 89.3374 38.1463 89.7402 38.6431 89.7402H40.2818C40.7786 89.7402 41.1813 89.3374 41.1813 88.8406C41.1813 88.3438 40.7786 87.941 40.2818 87.941Z" fill="#E6E6E6"/>
<path d="M59.023 87.941H57.3843C56.8875 87.941 56.4847 88.3438 56.4847 88.8406C56.4847 89.3374 56.8875 89.7402 57.3843 89.7402H59.023C59.5198 89.7402 59.9225 89.3374 59.9225 88.8406C59.9225 88.3438 59.5198 87.941 59.023 87.941Z" fill="#E6E6E6"/>
<path d="M64.333 87.941H62.6944C62.1976 87.941 61.7948 88.3438 61.7948 88.8406C61.7948 89.3374 62.1976 89.7402 62.6944 89.7402H64.333C64.8298 89.7402 65.2326 89.3374 65.2326 88.8406C65.2326 88.3438 64.8298 87.941 64.333 87.941Z" fill="#E6E6E6"/>
<path d="M53.9253 87.791H43.7408C43.2439 87.791 42.8412 88.1938 42.8412 88.6906C42.8412 89.1874 43.2439 89.5901 43.7408 89.5901H53.9253C54.4221 89.5901 54.8249 89.1874 54.8249 88.6906C54.8249 88.1938 54.4221 87.791 53.9253 87.791Z" fill="#E6E6E6"/>
<path d="M78.9136 87.791H68.729C68.2322 87.791 67.8295 88.1938 67.8295 88.6906C67.8295 89.1874 68.2322 89.5901 68.729 89.5901H78.9136C79.4104 89.5901 79.8131 89.1874 79.8131 88.6906C79.8131 88.1938 79.4104 87.791 78.9136 87.791Z" fill="#E6E6E6"/>
<path d="M45.2794 92.0017H43.6408C43.144 92.0017 42.7412 92.4045 42.7412 92.9013C42.7412 93.3981 43.144 93.8008 43.6408 93.8008H45.2794C45.7763 93.8008 46.179 93.3981 46.179 92.9013C46.179 92.4045 45.7763 92.0017 45.2794 92.0017Z" fill="#E6E6E6"/>
<path d="M64.0207 92.0017H62.382C61.8852 92.0017 61.4824 92.4045 61.4824 92.9013C61.4824 93.3981 61.8852 93.8008 62.382 93.8008H64.0207C64.5175 93.8008 64.9202 93.3981 64.9202 92.9013C64.9202 92.4045 64.5175 92.0017 64.0207 92.0017Z" fill="#E6E6E6"/>
<path d="M69.3306 92.0017H67.692C67.1952 92.0017 66.7924 92.4045 66.7924 92.9013C66.7924 93.3981 67.1952 93.8008 67.692 93.8008H69.3306C69.8275 93.8008 70.2302 93.3981 70.2302 92.9013C70.2302 92.4045 69.8275 92.0017 69.3306 92.0017Z" fill="#E6E6E6"/>
<path d="M58.923 91.8517H48.7384C48.2416 91.8517 47.8389 92.2544 47.8389 92.7513C47.8389 93.2481 48.2416 93.6508 48.7384 93.6508H58.923C59.4198 93.6508 59.8225 93.2481 59.8225 92.7513C59.8225 92.2544 59.4198 91.8517 58.923 91.8517Z" fill="#E6E6E6"/>
<path d="M83.9112 91.8517H73.7267C73.2299 91.8517 72.8271 92.2544 72.8271 92.7513C72.8271 93.2481 73.2299 93.6508 73.7267 93.6508H83.9112C84.4081 93.6508 84.8108 93.2481 84.8108 92.7513C84.8108 92.2544 84.4081 91.8517 83.9112 91.8517Z" fill="#E6E6E6"/>
<path d="M50.2771 96.0623H48.6384C48.1416 96.0623 47.7388 96.465 47.7388 96.9618C47.7388 97.4586 48.1416 97.8614 48.6384 97.8614H50.2771C50.7739 97.8614 51.1766 97.4586 51.1766 96.9618C51.1766 96.465 50.7739 96.0623 50.2771 96.0623Z" fill="#E6E6E6"/>
<path d="M69.0183 96.0623H67.3797C66.8829 96.0623 66.4801 96.465 66.4801 96.9618C66.4801 97.4586 66.8829 97.8614 67.3797 97.8614H69.0183C69.5151 97.8614 69.9179 97.4586 69.9179 96.9618C69.9179 96.465 69.5151 96.0623 69.0183 96.0623Z" fill="#E6E6E6"/>
<path d="M74.3283 96.0623H72.6897C72.1929 96.0623 71.7901 96.465 71.7901 96.9618C71.7901 97.4586 72.1929 97.8614 72.6897 97.8614H74.3283C74.8251 97.8614 75.2279 97.4586 75.2279 96.9618C75.2279 96.465 74.8251 96.0623 74.3283 96.0623Z" fill="#E6E6E6"/>
<path d="M63.9206 95.9122H53.7361C53.2393 95.9122 52.8365 96.315 52.8365 96.8118C52.8365 97.3086 53.2393 97.7114 53.7361 97.7114H63.9206C64.4175 97.7114 64.8202 97.3086 64.8202 96.8118C64.8202 96.315 64.4175 95.9122 63.9206 95.9122Z" fill="#E6E6E6"/>
<path d="M54.0254 112.209H52.3867C51.8899 112.209 51.4871 112.612 51.4871 113.108C51.4871 113.605 51.8899 114.008 52.3867 114.008H54.0254C54.5222 114.008 54.9249 113.605 54.9249 113.108C54.9249 112.612 54.5222 112.209 54.0254 112.209Z" fill="#E6E6E6"/>
<path d="M59.3353 112.209H57.6967C57.1999 112.209 56.7971 112.612 56.7971 113.108C56.7971 113.605 57.1999 114.008 57.6967 114.008H59.3353C59.8322 114.008 60.2349 113.605 60.2349 113.108C60.2349 112.612 59.8322 112.209 59.3353 112.209Z" fill="#E6E6E6"/>
<path d="M73.9159 112.359H63.7314C63.2346 112.359 62.8318 112.762 62.8318 113.258C62.8318 113.755 63.2346 114.158 63.7314 114.158H73.9159C74.4128 114.158 74.8155 113.755 74.8155 113.258C74.8155 112.762 74.4128 112.359 73.9159 112.359Z" fill="#E6E6E6"/>
<path d="M35.2841 112.209H33.6454C33.1486 112.209 32.7459 112.612 32.7459 113.108C32.7459 113.605 33.1486 114.008 33.6454 114.008H35.2841C35.7809 114.008 36.1837 113.605 36.1837 113.108C36.1837 112.612 35.7809 112.209 35.2841 112.209Z" fill="#E6E6E6"/>
<path d="M48.9277 112.359H38.7431C38.2463 112.359 37.8436 112.762 37.8436 113.258C37.8436 113.755 38.2463 114.158 38.7431 114.158H48.9277C49.4245 114.158 49.8272 113.755 49.8272 113.258C49.8272 112.762 49.4245 112.359 48.9277 112.359Z" fill="#E6E6E6"/>
<path d="M40.2818 108.148H38.6431C38.1463 108.148 37.7435 108.551 37.7435 109.048C37.7435 109.545 38.1463 109.947 38.6431 109.947H40.2818C40.7786 109.947 41.1813 109.545 41.1813 109.048C41.1813 108.551 40.7786 108.148 40.2818 108.148Z" fill="#E6E6E6"/>
<path d="M59.023 108.148H57.3843C56.8875 108.148 56.4847 108.551 56.4847 109.048C56.4847 109.545 56.8875 109.947 57.3843 109.947H59.023C59.5198 109.947 59.9225 109.545 59.9225 109.048C59.9225 108.551 59.5198 108.148 59.023 108.148Z" fill="#E6E6E6"/>
<path d="M64.333 108.148H62.6944C62.1976 108.148 61.7948 108.551 61.7948 109.048C61.7948 109.545 62.1976 109.947 62.6944 109.947H64.333C64.8298 109.947 65.2326 109.545 65.2326 109.048C65.2326 108.551 64.8298 108.148 64.333 108.148Z" fill="#E6E6E6"/>
<path d="M53.9253 108.298H43.7408C43.2439 108.298 42.8412 108.701 42.8412 109.198C42.8412 109.695 43.2439 110.097 43.7408 110.097H53.9253C54.4221 110.097 54.8249 109.695 54.8249 109.198C54.8249 108.701 54.4221 108.298 53.9253 108.298Z" fill="#E6E6E6"/>
<path d="M45.2794 104.088H43.6408C43.144 104.088 42.7412 104.49 42.7412 104.987C42.7412 105.484 43.144 105.887 43.6408 105.887H45.2794C45.7763 105.887 46.179 105.484 46.179 104.987C46.179 104.49 45.7763 104.088 45.2794 104.088Z" fill="#E6E6E6"/>
<path d="M64.0207 104.088H62.382C61.8852 104.088 61.4824 104.49 61.4824 104.987C61.4824 105.484 61.8852 105.887 62.382 105.887H64.0207C64.5175 105.887 64.9202 105.484 64.9202 104.987C64.9202 104.49 64.5175 104.088 64.0207 104.088Z" fill="#E6E6E6"/>
<path d="M69.3306 104.088H67.692C67.1952 104.088 66.7924 104.49 66.7924 104.987C66.7924 105.484 67.1952 105.887 67.692 105.887H69.3306C69.8275 105.887 70.2302 105.484 70.2302 104.987C70.2302 104.49 69.8275 104.088 69.3306 104.088Z" fill="#E6E6E6"/>
<path d="M58.923 104.238H48.7384C48.2416 104.238 47.8389 104.64 47.8389 105.137C47.8389 105.634 48.2416 106.037 48.7384 106.037H58.923C59.4198 106.037 59.8225 105.634 59.8225 105.137C59.8225 104.64 59.4198 104.238 58.923 104.238Z" fill="#E6E6E6"/>
<path d="M50.2771 100.027H48.6384C48.1416 100.027 47.7388 100.43 47.7388 100.927C47.7388 101.423 48.1416 101.826 48.6384 101.826H50.2771C50.7739 101.826 51.1766 101.423 51.1766 100.927C51.1766 100.43 50.7739 100.027 50.2771 100.027Z" fill="#E6E6E6"/>
<path d="M69.0183 100.027H67.3797C66.8829 100.027 66.4801 100.43 66.4801 100.927C66.4801 101.423 66.8829 101.826 67.3797 101.826H69.0183C69.5151 101.826 69.9179 101.423 69.9179 100.927C69.9179 100.43 69.5151 100.027 69.0183 100.027Z" fill="#E6E6E6"/>
<path d="M74.3283 100.027H72.6897C72.1929 100.027 71.7901 100.43 71.7901 100.927C71.7901 101.423 72.1929 101.826 72.6897 101.826H74.3283C74.8251 101.826 75.2279 101.423 75.2279 100.927C75.2279 100.43 74.8251 100.027 74.3283 100.027Z" fill="#E6E6E6"/>
<path d="M63.9206 100.177H53.7361C53.2393 100.177 52.8365 100.58 52.8365 101.077C52.8365 101.574 53.2393 101.976 53.7361 101.976H63.9206C64.4175 101.976 64.8202 101.574 64.8202 101.077C64.8202 100.58 64.4175 100.177 63.9206 100.177Z" fill="#E6E6E6"/>
<path d="M29.3925 170.87C29.583 170.967 29.7766 171.064 29.9672 171.157C34.9024 173.625 38.8505 175.027 44.2511 176.564C44.7072 171.473 45.1476 162.524 45.5755 156.976C45.6879 155.536 45.8004 154.328 45.9097 153.475C45.9373 153.022 46.0299 152.575 46.1846 152.147L46.1658 153.475L46.119 156.976L45.8472 177.001C52.5652 178.779 59.4661 179.774 66.4126 179.966C66.7749 179.975 67.131 179.981 67.4746 179.988C67.5964 179.991 67.7151 179.994 67.8338 179.994C68.2243 179.997 68.6116 180 69.002 180C76.3223 180.005 83.6161 179.121 90.7231 177.367C90.57 172.329 90.417 163.48 90.2702 156.976C90.2389 155.705 90.2108 154.521 90.1796 153.475C90.1202 151.238 90.0578 149.627 89.9984 149.086C90.051 149.182 90.0919 149.284 90.1202 149.389C90.4095 150.736 90.6068 152.101 90.7106 153.475C90.8199 154.521 90.9292 155.705 91.0386 156.976C91.6195 163.733 92.2255 172.919 92.8502 176.814C96.5686 175.799 100.217 174.544 103.773 173.056C105.647 172.275 107.488 171.433 109.296 170.529C108.952 168.28 108.593 165.76 108.224 163.145C107.937 161.118 107.64 159.035 107.337 156.976C106.869 153.797 99.9063 131.576 99.4659 130.732C99.0879 130.011 98.7287 129.33 98.3883 128.702C97.5637 127.178 96.864 125.963 96.3455 125.194C94.1777 121.906 90.9505 119.458 87.1997 118.257L87.106 118.232L87.0405 118.26L80.6528 116.299L79.7189 116.011L79.091 115.818L76.8796 114.134L75.677 113.219L74.5494 112.36L72.3442 110.682L58.6912 111.523L56.0331 117.923L50.0796 120.1L49.9766 120.053L49.886 120.016L49.7923 120.041C46.0421 121.243 42.8153 123.691 40.6466 126.978C40.353 127.418 39.9969 127.999 39.594 128.702C39.2504 129.299 38.8755 129.98 38.4695 130.732C37.8916 131.804 37.2607 133.013 36.5922 134.321C36.4454 134.609 36.2955 134.902 36.1456 135.199C35.8676 135.749 35.5854 136.31 35.2991 136.883C34.6338 138.21 33.9466 139.597 33.2594 141.006C32.6628 142.227 32.06 144.738 31.4665 147.934C30.9761 150.589 30.4888 153.719 30.0172 156.976C29.3987 161.199 30.0578 166.256 29.4987 170.142C29.4643 170.389 29.4268 170.629 29.3925 170.87Z" fill="#3F3D56"/>
<path opacity="0.2" d="M94.8274 147.92L92.1734 137.677L89.8298 146.516L94.8274 147.92Z" fill="black"/>
<path d="M24.2011 141.246C25.1507 154.328 24.1668 160.087 29.4081 170.873C34.1769 173.207 39.1442 175.112 44.2511 176.564C44.7821 176.714 45.3142 176.86 45.8472 177.001C52.5652 178.779 59.4661 179.774 66.4126 179.966C66.7749 179.975 67.131 179.981 67.4746 179.987C67.5964 179.991 67.7151 179.994 67.8338 179.994C68.2243 179.997 68.6116 180 69.002 180C76.3223 180.005 83.6161 179.121 90.7231 177.367C91.4352 177.192 92.1443 177.008 92.8502 176.814C96.5686 175.799 100.217 174.544 103.773 173.056C105.647 172.275 107.488 171.433 109.296 170.529C109.705 170.323 110.114 170.117 110.517 169.905C112.588 166.263 113.765 161.833 113.79 156.511C112.357 147.34 27.3684 133.337 24.2011 141.246Z" fill="#2F2E41"/>
<path opacity="0.2" d="M24.2036 143.487C24.1551 142.677 24.1009 141.84 24.0377 140.969C27.2049 133.06 112.193 147.063 113.627 156.234C113.623 157.075 113.587 157.89 113.527 158.687C110.055 149.636 29.3146 136.327 24.2036 143.487Z" fill="black"/>
<path d="M4.94433 147.801C5.08194 148.202 5.34299 148.549 5.68998 148.792C6.03697 149.035 6.45206 149.162 6.87565 149.154L15.1505 148.941C15.5771 148.933 15.9897 148.787 16.3264 148.524C16.6631 148.262 16.906 147.898 17.0186 147.486L18.1896 134.965C18.605 135.153 19.0573 135.246 19.5133 135.237C20.313 135.216 21.0719 134.879 21.623 134.299C22.1741 133.719 22.4724 132.944 22.4524 132.145C22.4323 131.345 22.0955 130.586 21.5159 130.034C20.9364 129.483 20.1616 129.184 19.3618 129.203C19.1796 129.203 18.9978 129.222 18.8195 129.26C18.6257 129.05 18.3901 128.883 18.1279 128.77C17.8657 128.657 17.5827 128.6 17.2971 128.603L4.56854 128.932C4.46295 128.936 4.3579 128.949 4.25457 128.971C3.97543 129.023 3.71067 129.134 3.47813 129.297C3.24558 129.46 3.05064 129.671 2.90642 129.915C2.76219 130.16 2.67204 130.432 2.64203 130.715C2.61201 130.997 2.64283 131.283 2.73241 131.552L4.94433 147.801ZM18.4297 134.115L19.263 131.131C19.3577 130.786 19.3599 130.423 19.2693 130.077C19.3097 130.077 19.3454 130.058 19.3858 130.058C19.9572 130.046 20.5099 130.261 20.9228 130.656C21.3356 131.051 21.575 131.594 21.5884 132.165C21.6018 132.736 21.3881 133.29 20.9941 133.704C20.6002 134.118 20.0582 134.359 19.4869 134.373C19.1176 134.385 18.752 134.296 18.4297 134.115Z" fill="#2F2E41"/>
<path d="M4.25458 128.971C4.52576 130.521 7.57461 131.611 11.2406 131.422C14.6118 131.266 17.3682 130.083 17.8732 128.68C17.6863 128.625 17.492 128.599 17.2971 128.603L4.56855 128.932C4.46296 128.936 4.35791 128.949 4.25458 128.971Z" fill="#3F3D56"/>
<path d="M11.9125 140.921C11.9293 140.916 11.9452 140.909 11.9597 140.9L13.7567 139.724C13.7784 139.709 13.7963 139.69 13.8086 139.667C13.821 139.645 13.8275 139.619 13.8275 139.593C13.8275 139.567 13.821 139.542 13.8087 139.519C13.7963 139.496 13.7785 139.477 13.7568 139.462L11.889 138.239C11.8718 138.228 11.8526 138.22 11.8324 138.216C11.8123 138.212 11.7915 138.212 11.7714 138.216C11.7512 138.22 11.7321 138.229 11.7151 138.24C11.6981 138.252 11.6836 138.266 11.6723 138.284C11.661 138.301 11.6533 138.32 11.6495 138.34C11.6457 138.36 11.6459 138.381 11.6501 138.401C11.6543 138.421 11.6625 138.441 11.6741 138.458C11.6857 138.474 11.7006 138.489 11.7178 138.5L13.3861 139.593L11.7887 140.639C11.7578 140.659 11.735 140.689 11.7245 140.725C11.714 140.76 11.7163 140.798 11.7312 140.832C11.746 140.866 11.7724 140.893 11.8056 140.91C11.8388 140.926 11.8767 140.93 11.9125 140.921Z" fill="#21B8EC"/>
<path d="M9.07423 141.052C9.10439 141.044 9.13158 141.027 9.15232 141.004C9.17306 140.981 9.1864 140.952 9.19063 140.921C9.19486 140.891 9.18979 140.859 9.17606 140.831C9.16234 140.803 9.14059 140.78 9.11361 140.765L7.45718 139.815L9.05819 138.626C9.07464 138.614 9.08851 138.598 9.09903 138.581C9.10955 138.563 9.11651 138.544 9.1195 138.523C9.12249 138.503 9.12146 138.482 9.11646 138.462C9.11146 138.443 9.10259 138.424 9.09037 138.407C9.07814 138.391 9.0628 138.377 9.04521 138.367C9.02763 138.356 9.00813 138.349 8.98786 138.346C8.96758 138.343 8.94692 138.344 8.92704 138.349C8.90717 138.354 8.88847 138.363 8.87202 138.375L7.07954 139.707C7.05871 139.722 7.04206 139.743 7.03108 139.766C7.02011 139.79 7.01516 139.815 7.01669 139.841C7.01821 139.867 7.02616 139.892 7.03982 139.914C7.05347 139.936 7.0724 139.955 7.0949 139.967L8.95817 141.036C8.99333 141.056 9.03494 141.062 9.07423 141.052Z" fill="#21B8EC"/>
<path d="M11.7338 141.951C11.7489 141.948 11.7633 141.942 11.7766 141.933C11.7941 141.923 11.8094 141.909 11.8215 141.892C11.8336 141.876 11.8424 141.857 11.8472 141.837C11.8521 141.817 11.853 141.796 11.8498 141.776C11.8467 141.756 11.8396 141.736 11.8289 141.719L9.28149 137.531C9.25983 137.495 9.22512 137.47 9.18494 137.461C9.14477 137.451 9.1024 137.458 9.06711 137.479C9.03183 137.501 9.00649 137.535 8.99665 137.575C8.98681 137.615 8.99327 137.658 9.01461 137.693L11.562 141.881C11.5794 141.91 11.6054 141.932 11.6364 141.945C11.6673 141.957 11.7014 141.96 11.7338 141.951Z" fill="#21B8EC"/>
<path d="M209.592 124.375H181.792V148.738H209.592V124.375Z" fill="#3F3D56"/>
<path d="M213.712 90.3438C213.197 93.3981 213.65 96.5373 215.007 99.3216C215.509 100.346 216.131 101.579 215.52 102.542C215.348 102.783 215.125 102.982 214.866 103.125C214.608 103.269 214.32 103.352 214.025 103.37C213.435 103.402 212.844 103.325 212.281 103.144" fill="#CCCCCC"/>
<path d="M189.289 80.9575C189.806 80.9575 190.226 80.6079 190.226 80.1766C190.226 79.7454 189.806 79.3958 189.289 79.3958C188.771 79.3958 188.352 79.7454 188.352 80.1766C188.352 80.6079 188.771 80.9575 189.289 80.9575Z" fill="#3F3D56"/>
<path d="M192.725 81.2699C193.242 81.2699 193.662 80.9203 193.662 80.489C193.662 80.0577 193.242 79.7081 192.725 79.7081C192.207 79.7081 191.788 80.0577 191.788 80.489C191.788 80.9203 192.207 81.2699 192.725 81.2699Z" fill="#3F3D56"/>
<path d="M196.161 82.8317C196.678 82.8317 197.098 82.4821 197.098 82.0508C197.098 81.6195 196.678 81.2699 196.161 81.2699C195.643 81.2699 195.224 81.6195 195.224 82.0508C195.224 82.4821 195.643 82.8317 196.161 82.8317Z" fill="#3F3D56"/>
<path d="M200.221 81.8945C200.739 81.8945 201.158 81.5449 201.158 81.1136C201.158 80.6824 200.739 80.3328 200.221 80.3328C199.704 80.3328 199.284 80.6824 199.284 81.1136C199.284 81.5449 199.704 81.8945 200.221 81.8945Z" fill="#3F3D56"/>
<path d="M114.926 96.6948C119.477 95.4314 124.546 96.7854 128.063 99.887C129.96 101.572 131.353 103.751 132.085 106.18C132.983 109.072 133.132 112.123 133.226 115.129C133.33 118.453 133.42 121.778 133.517 125.102C133.609 128.271 133.62 131.456 133.832 134.62C134.009 137.275 134.434 140.031 135.855 142.334C137.172 144.469 139.254 145.911 141.606 146.706C143.99 147.511 146.56 147.698 149.061 147.682C151.972 147.673 154.877 147.443 157.753 146.994C163.215 146.119 168.61 143.887 171.947 139.282C173.482 137.191 174.346 134.683 174.421 132.089C174.491 129.067 173.526 126.14 172.468 123.349C171.439 120.633 170.326 117.957 169.675 115.117C169.07 112.459 168.781 109.739 168.816 107.014C168.872 101.561 170.179 96.1936 172.636 91.3256C173.879 88.8254 175.457 86.5058 177.325 84.4304C179.252 82.3339 181.638 80.6032 184.475 80.0358C185.86 79.749 187.293 79.8067 188.65 80.2037C189.229 80.3771 189.477 79.473 188.9 79.3001C186.089 78.4586 183.036 79.0985 180.544 80.5591C178.094 81.9953 176.157 84.1499 174.514 86.4343C171.357 90.9131 169.255 96.0489 168.366 101.456C167.477 106.864 167.825 112.402 169.382 117.656C171.05 123.118 174.677 128.805 173.119 134.717C171.755 139.891 167.031 143.408 162.15 144.997C159.189 145.96 156.085 146.368 152.988 146.579C150.371 146.757 147.719 146.871 145.11 146.534C142.713 146.225 140.248 145.493 138.39 143.884C136.353 142.121 135.422 139.587 135.017 136.986C134.559 134.044 134.626 131.01 134.54 128.041L134.244 117.908C134.078 112.184 134.221 105.841 130.498 101.099C129.009 99.2506 127.118 97.7666 124.97 96.7593C122.821 95.7521 120.471 95.2481 118.098 95.2858C116.941 95.3124 115.792 95.4821 114.676 95.7912C114.56 95.8276 114.463 95.9075 114.405 96.0143C114.347 96.121 114.332 96.2461 114.365 96.3633C114.397 96.4805 114.473 96.5806 114.578 96.6424C114.683 96.7042 114.807 96.723 114.926 96.6948Z" fill="#3F3D56"/>
<path d="M48.4043 90.7668C49.0677 95.4866 51.5775 99.7499 55.3824 102.62C59.1874 105.49 63.9761 106.733 68.6965 106.074C73.4169 105.416 77.6827 102.91 80.5568 99.108C83.4309 95.3059 84.678 90.5185 84.0242 85.7974L83.9886 85.5423C83.228 80.8849 80.6671 76.7132 76.8583 73.927C73.0495 71.1409 68.2981 69.9635 63.6291 70.6491C58.96 71.3346 54.7476 73.828 51.9005 77.5914C49.0533 81.3548 47.7996 86.0866 48.4098 90.7661L48.4043 90.7668Z" fill="#FFB6B6"/>
<path d="M64.2568 105.636C63.3271 103.763 62.3717 101.753 62.6243 99.677C62.8768 97.6014 64.9048 95.6116 66.9047 96.2215C68.1006 96.5862 69.0075 97.7629 70.2566 97.819C71.9751 97.8964 72.9537 95.9265 73.4831 94.2897L75.639 87.6233C79.7975 90.8902 74.5309 87.4653 79.6822 86.2694C81.703 85.8002 83.7432 84.8918 84.9239 83.1859C86.1045 81.48 86.0885 78.84 84.457 77.5584C83.6571 76.9301 82.5943 76.6939 81.8296 76.0231C81.3552 75.6069 81.0274 75.0491 80.8947 74.4322C80.7619 73.8153 80.8313 73.172 81.0926 72.5976C81.3538 72.0231 81.7931 71.5481 82.3453 71.2427C82.8975 70.9373 83.5334 70.8178 84.1588 70.9019L78.6719 70.2348L80.2962 67.2738C79.1218 68.206 77.4835 68.3363 76.007 68.0755C74.5305 67.8148 73.1387 67.2119 71.6938 66.8115C64.7573 64.8896 56.7146 68.2986 53.272 74.6198C51.9208 74.1736 50.466 74.1485 49.1002 74.5478C47.7345 74.9472 46.5223 75.752 45.6243 76.8558C44.1624 78.7242 43.7714 81.2123 43.7225 83.5842C43.6313 88.261 44.6665 92.891 46.7406 97.0837C47.387 98.3867 48.1511 99.6648 49.2498 100.618C50.3486 101.571 62.7658 106.851 64.1989 106.602" fill="#2F2E41"/>
<path d="M193.974 93.2955C193.977 94.1062 193.873 94.9138 193.665 95.6975V95.7006C193.662 95.7162 193.656 95.7318 193.653 95.7474C193.022 98.0682 191.516 99.6987 189.757 99.6987C188.008 99.6987 186.509 98.0807 185.869 95.7787C185.825 95.6194 185.787 95.4601 185.753 95.2945C185.709 95.1102 185.675 94.9197 185.647 94.7229C185.622 94.5667 185.603 94.4074 185.588 94.245C185.566 94.0201 185.55 93.7952 185.547 93.561V93.5578C185.541 93.4704 185.541 93.3829 185.541 93.2955V93.2174L185.544 93.2142C185.544 92.8184 185.57 92.4229 185.622 92.0304C185.644 91.8649 185.669 91.7056 185.7 91.5463C185.737 91.3526 185.778 91.1621 185.828 90.9747C185.869 90.8091 185.916 90.6498 185.966 90.4905C186.034 90.2781 186.109 90.072 186.194 89.8752C186.247 89.7471 186.303 89.6222 186.359 89.5004C187.127 87.9199 188.364 86.8922 189.757 86.8922C191.685 86.8922 193.309 88.8569 193.812 91.5369C193.818 91.5775 193.827 91.6181 193.831 91.6587V91.6618C193.927 92.201 193.975 92.7477 193.974 93.2955Z" fill="#E6E6E6"/>
<path d="M186.4 89.6378C186.398 89.6951 186.376 89.75 186.339 89.7932C186.301 89.8365 186.25 89.8654 186.194 89.8752C186.247 89.7471 186.303 89.6222 186.359 89.5004C186.385 89.5415 186.399 89.5891 186.4 89.6378Z" fill="#21B8EC"/>
<path d="M190.093 89.3534H187.344C187.21 89.3534 187.101 89.4621 187.101 89.5962C187.101 89.7303 187.21 89.839 187.344 89.839H190.093C190.227 89.839 190.335 89.7303 190.335 89.5962C190.335 89.4621 190.227 89.3534 190.093 89.3534Z" fill="#21B8EC"/>
<path d="M186.315 90.731C186.315 90.7956 186.29 90.8575 186.244 90.9032C186.198 90.9489 186.136 90.9745 186.072 90.9746H185.828C185.869 90.8091 185.916 90.6498 185.966 90.4905H186.072C186.136 90.4904 186.197 90.5156 186.243 90.5606C186.289 90.6057 186.315 90.6669 186.315 90.731Z" fill="#21B8EC"/>
<path d="M187.506 90.4897H187.064C186.93 90.4897 186.821 90.5984 186.821 90.7325C186.821 90.8666 186.93 90.9753 187.064 90.9753H187.506C187.64 90.9753 187.749 90.8666 187.749 90.7325C187.749 90.5984 187.64 90.4897 187.506 90.4897Z" fill="#21B8EC"/>
<path d="M191.441 90.4492H188.693C188.559 90.4492 188.45 90.5579 188.45 90.692C188.45 90.8261 188.559 90.9348 188.693 90.9348H191.441C191.576 90.9348 191.684 90.8261 191.684 90.692C191.684 90.5579 191.576 90.4492 191.441 90.4492Z" fill="#21B8EC"/>
<path d="M187.422 91.5857H186.98C186.846 91.5857 186.737 91.6944 186.737 91.8285C186.737 91.9626 186.846 92.0713 186.98 92.0713H187.422C187.556 92.0713 187.665 91.9626 187.665 91.8285C187.665 91.6944 187.556 91.5857 187.422 91.5857Z" fill="#21B8EC"/>
<path d="M188.855 91.5857H188.413C188.279 91.5857 188.17 91.6944 188.17 91.8285C188.17 91.9626 188.279 92.0713 188.413 92.0713H188.855C188.989 92.0713 189.098 91.9626 189.098 91.8285C189.098 91.6944 188.989 91.5857 188.855 91.5857Z" fill="#21B8EC"/>
<path d="M186.29 91.7868C186.29 91.8514 186.265 91.9133 186.219 91.959C186.173 92.0046 186.111 92.0303 186.047 92.0304H185.622C185.644 91.8649 185.669 91.7056 185.7 91.5463H186.047C186.079 91.546 186.11 91.552 186.14 91.5639C186.169 91.5758 186.196 91.5935 186.219 91.6158C186.241 91.6382 186.259 91.6648 186.272 91.6941C186.284 91.7235 186.29 91.755 186.29 91.7868Z" fill="#21B8EC"/>
<path d="M192.79 91.5452H190.042C189.907 91.5452 189.799 91.6539 189.799 91.788C189.799 91.922 189.907 92.0307 190.042 92.0307H192.79C192.924 92.0307 193.033 91.922 193.033 91.788C193.033 91.6539 192.924 91.5452 192.79 91.5452Z" fill="#21B8EC"/>
<path d="M186.4 93.3861C186.4 93.4179 186.393 93.4494 186.381 93.4787C186.369 93.5081 186.351 93.5347 186.328 93.557C186.305 93.5794 186.278 93.597 186.249 93.609C186.219 93.6209 186.188 93.6269 186.156 93.6266H185.716C185.653 93.6269 185.593 93.6034 185.547 93.561V93.5579C185.541 93.4704 185.541 93.383 185.541 93.2955V93.2174L185.544 93.2143C185.566 93.1915 185.593 93.1734 185.622 93.1611C185.652 93.1487 185.684 93.1424 185.716 93.1425H186.156C186.221 93.1425 186.283 93.1682 186.328 93.2139C186.374 93.2596 186.4 93.3215 186.4 93.3861Z" fill="#CCCCCC"/>
<path d="M190.093 93.1016H187.344C187.21 93.1016 187.101 93.2103 187.101 93.3443C187.101 93.4784 187.21 93.5871 187.344 93.5871H190.093C190.227 93.5871 190.335 93.4784 190.335 93.3443C190.335 93.2103 190.227 93.1016 190.093 93.1016Z" fill="#CCCCCC"/>
<path d="M186.315 94.4793C186.315 94.5439 186.29 94.6058 186.244 94.6515C186.198 94.6971 186.136 94.7228 186.072 94.7229H185.647C185.622 94.5667 185.603 94.4074 185.588 94.245C185.601 94.2399 185.616 94.2378 185.631 94.2388H186.072C186.136 94.2387 186.197 94.2639 186.243 94.3089C186.289 94.354 186.315 94.4152 186.315 94.4793Z" fill="#CCCCCC"/>
<path d="M187.506 94.238H187.064C186.93 94.238 186.821 94.3467 186.821 94.4808C186.821 94.6149 186.93 94.7236 187.064 94.7236H187.506C187.64 94.7236 187.749 94.6149 187.749 94.4808C187.749 94.3467 187.64 94.238 187.506 94.238Z" fill="#CCCCCC"/>
<path d="M191.441 94.1975H188.693C188.559 94.1975 188.45 94.3062 188.45 94.4403C188.45 94.5744 188.559 94.6831 188.693 94.6831H191.441C191.576 94.6831 191.684 94.5744 191.684 94.4403C191.684 94.3062 191.576 94.1975 191.441 94.1975Z" fill="#CCCCCC"/>
<path d="M187.422 95.3339H186.98C186.846 95.3339 186.737 95.4426 186.737 95.5766C186.737 95.7107 186.846 95.8194 186.98 95.8194H187.422C187.556 95.8194 187.665 95.7107 187.665 95.5766C187.665 95.4426 187.556 95.3339 187.422 95.3339Z" fill="#CCCCCC"/>
<path d="M188.855 95.3339H188.413C188.279 95.3339 188.17 95.4426 188.17 95.5766C188.17 95.7107 188.279 95.8194 188.413 95.8194H188.855C188.989 95.8194 189.098 95.7107 189.098 95.5766C189.098 95.4426 188.989 95.3339 188.855 95.3339Z" fill="#CCCCCC"/>
<path d="M186.29 95.5351C186.29 95.5997 186.265 95.6616 186.219 95.7073C186.173 95.7529 186.111 95.7786 186.047 95.7787H185.869C185.825 95.6194 185.787 95.4601 185.753 95.2946H186.047C186.079 95.2943 186.11 95.3002 186.14 95.3122C186.169 95.3241 186.196 95.3418 186.219 95.3641C186.241 95.3865 186.259 95.4131 186.272 95.4424C186.284 95.4718 186.29 95.5033 186.29 95.5351Z" fill="#CCCCCC"/>
<path d="M192.79 95.2935H190.042C189.907 95.2935 189.799 95.4022 189.799 95.5362C189.799 95.6703 189.907 95.779 190.042 95.779H192.79C192.924 95.779 193.033 95.6703 193.033 95.5362C193.033 95.4022 192.924 95.2935 192.79 95.2935Z" fill="#CCCCCC"/>
</g>
<defs>
<clipPath id="clip0_4_173">
<rect width="230.773" height="180" fill="white"/>
</clipPath>
</defs>
</svg>
